<svg xmlns="http://www.w3.org/2000/svg" width="100" height="100" viewBox="0 0 100 100"><defs><style>.a{fill:#002855;}</style></defs><g transform="translate(-3 -3)"><g transform="translate(56.462 3)"><path class="a" d="M59.592,49.538H20.746A3.634,3.634,0,0,1,16.9,45.692V6.846A3.634,3.634,0,0,1,20.746,3,42.843,42.843,0,0,1,63.438,45.692,3.854,3.854,0,0,1,59.592,49.538Zm-35-7.692H55.362C53.438,25.692,40.746,12.615,24.592,11.077Z" transform="translate(-16.9 -3)"/></g><g transform="translate(3 18)"><path class="a" d="M45.692,91.9a42.5,42.5,0,1,1,0-85,3.634,3.634,0,0,1,3.846,3.846,3.634,3.634,0,0,1-3.846,3.846,34.808,34.808,0,1,0,0,69.615,35.128,35.128,0,0,0,35-35,3.846,3.846,0,0,1,7.692,0C88,72.669,69.154,91.9,45.692,91.9Z" transform="translate(-3 -6.9)"/></g></g></svg>