<svg xmlns="http://www.w3.org/2000/svg" width="20" height="18.589" viewBox="0 0 20 18.589"><defs><style>.a{fill:#fff;}</style></defs><g transform="translate(-2 -2.975)"><g transform="translate(4.143 9.564)"><path class="a" d="M18.786,24.2H6.929a2.113,2.113,0,0,1-.714-.143,1.687,1.687,0,0,1-.643-.429,2.493,2.493,0,0,1-.429-.643A2.113,2.113,0,0,1,5,22.271V12.914a.675.675,0,0,1,.714-.714.675.675,0,0,1,.714.714v9.571a.249.249,0,0,0,.071.143c.071.071.071.071.143.071a.54.54,0,0,0,.286.071H18.857a.488.488,0,0,0,.5-.5V12.914a.714.714,0,1,1,1.429,0v9.357A2.031,2.031,0,0,1,18.786,24.2Z" transform="translate(-5 -12.2)"/></g><g transform="translate(2 2.975)"><path class="a" d="M21.286,13.136a.648.648,0,0,1-.5-.214L12.429,4.564a.65.65,0,0,0-.857,0L3.214,12.993a.707.707,0,0,1-1-1l8.357-8.429a2.026,2.026,0,0,1,2.857,0l8.357,8.357a.69.69,0,0,1,0,1A.648.648,0,0,1,21.286,13.136Z" transform="translate(-2 -2.975)"/></g></g></svg>