<svg xmlns="http://www.w3.org/2000/svg" width="100" height="109" viewBox="0 0 100 109"><defs><style>.a{fill:#1595e9;}</style></defs><g transform="translate(-5 -3)"><g transform="translate(5 3)"><path class="a" d="M85.753,112H16.3A11.261,11.261,0,0,1,5,100.681V14.319C5,7.612,9.6,3,16.3,3H76.13a3.8,3.8,0,0,1,2.929,1.258L95.795,21.446a3.809,3.809,0,0,1,1.255,2.935V59.6a4.184,4.184,0,1,1-8.368,0V26.058L74.456,11.385H16.3a2.863,2.863,0,0,0-2.929,2.935v86.362a2.844,2.844,0,0,0,2.929,2.935H85.753a2.844,2.844,0,0,0,2.929-2.935V88.1a4.184,4.184,0,1,1,8.368,0v12.577A11.261,11.261,0,0,1,85.753,112Z" transform="translate(-5 -3)"/></g><g transform="translate(63.577 68.819)"><path class="a" d="M20.674,18.7H19v4.192h1.255c1.674,0,2.51-.838,2.51-2.1,0-.838,0-1.258-.418-1.677C21.929,19.119,21.51,18.7,20.674,18.7Z" transform="translate(-19 -18.7)"/></g><g transform="translate(77.385 69.238)"><path class="a" d="M26.9,20.058c-.418-.419-.418-.838-.837-.838a1.3,1.3,0,0,0-.837-.419H22.3V28.862h2.929a1.46,1.46,0,0,0,.837-.419L26.9,27.6a1.542,1.542,0,0,0,.418-1.258V22.154C27.321,20.9,27.321,20.477,26.9,20.058Z" transform="translate(-22.3 -18.8)"/></g><g transform="translate(53.536 59.596)"><path class="a" d="M63.044,16.5H21.621A4.839,4.839,0,0,0,16.6,21.531V39.977a4.839,4.839,0,0,0,5.021,5.031H63.044a4.839,4.839,0,0,0,5.021-5.031V21.531A5.093,5.093,0,0,0,63.044,16.5ZM33.755,30.335A5.786,5.786,0,0,1,32.5,32.012a3.193,3.193,0,0,1-2.092.838c-.837,0-1.674.419-2.51.419H26.223v3.773c0,1.258-.418,1.677-1.674,1.677h-.418a1.481,1.481,0,0,1-1.674-1.677V24.465a1.481,1.481,0,0,1,1.674-1.677H27.9a8.422,8.422,0,0,1,4.6,1.258,4.09,4.09,0,0,1,1.674,3.773A2.777,2.777,0,0,1,33.755,30.335Zm15.481,4.192a3.85,3.85,0,0,1-1.674,2.515c-.837.838-1.255,1.258-2.092,1.258a6.193,6.193,0,0,1-2.929.419H38.357a1.481,1.481,0,0,1-1.674-1.677V24.465a1.481,1.481,0,0,1,1.674-1.677h4.184a6.193,6.193,0,0,1,2.929.419,9.143,9.143,0,0,1,2.092,1.258,8.772,8.772,0,0,1,1.674,2.515,9.322,9.322,0,0,1,.418,3.773A11.628,11.628,0,0,1,49.236,34.527ZM60.951,25.3a1.535,1.535,0,0,1-1.255.419H55.931V29.5h2.929a1.677,1.677,0,0,1,0,3.354H55.931v4.192a1.481,1.481,0,0,1-1.674,1.677h-.418a1.481,1.481,0,0,1-1.674-1.677V24.465a1.481,1.481,0,0,1,1.674-1.677H59.7a1.481,1.481,0,0,1,1.674,1.677C61.37,24.885,61.37,25.3,60.951,25.3Z" transform="translate(-16.6 -16.5)"/></g></g></svg>