<svg xmlns="http://www.w3.org/2000/svg" width="83" height="83" viewBox="0 0 83 83"><defs><style>.a{fill:#0075c9;}</style></defs><path class="a" d="M785.86,267.052a44.555,44.555,0,0,1-19.941-4.855,1.5,1.5,0,0,1,1.366-2.672,41.5,41.5,0,0,0,18.583,4.527,38.5,38.5,0,1,0-38.508-38.5c0,4.675,2.9,13.691,9.11,18.2,3.851,2.79,8.343,3.376,13.35,1.736,4.94-1.618,14.576-8.676,17.122-14.318a4.637,4.637,0,0,0,.517-2.584c-.374-.167-.721-.331-1.045-.484-2.569-1.206-3.163-1.418-4.589-.084l-10.72,10.12c-2.9,2.639-2.745,3.761-2.177,5.175a1.5,1.5,0,1,1-2.783,1.119c-1.237-3.077-.418-5.459,2.922-8.495l10.7-10.106a5.18,5.18,0,0,1,5.735-1.37q-.3-.534-.583-1.03c-2.021-3.544-3.481-6.1-1.064-11.294a11.971,11.971,0,0,1,11.793-6.766c2.021.172,3.253.861,3.559,1.992a1.976,1.976,0,0,1-.786,2.109c-.76.755-2.532,2.942-2.464,4.878a3.122,3.122,0,0,0,1.274,2.33,5.056,5.056,0,0,0,4.681.926,3.4,3.4,0,0,0,2.39-1.954c.131-.415.531-1.678,1.718-1.888a1.786,1.786,0,0,1,1.743.718c1.045,1.352,1.266,5.478.022,8.187-2.03,4.428-6.933,9.152-14.057,7.9a24.463,24.463,0,0,1-3.281-.813,9.038,9.038,0,0,1-.776,2.649c-2.991,6.628-13.379,14.119-18.923,15.935-5.889,1.926-11.436,1.181-16.044-2.159C747.571,241,744.36,231,744.36,225.552a41.5,41.5,0,1,1,41.5,41.5Zm3.963-40.719a21.7,21.7,0,0,0,4.429,1.276c7.024,1.236,10.238-4.944,10.812-6.194a7.127,7.127,0,0,0,.556-2.5,7.248,7.248,0,0,1-2.862,1.569,8.057,8.057,0,0,1-7.446-1.5,6.115,6.115,0,0,1-2.349-4.541,9.726,9.726,0,0,1,2.438-6.081,9.27,9.27,0,0,0-3.3.354,8.534,8.534,0,0,0-5.52,4.689c-1.762,3.783-.912,5.274.952,8.542A49.476,49.476,0,0,1,789.823,226.333Z" transform="translate(-744.36 -184.053)"/></svg>