<svg xmlns="http://www.w3.org/2000/svg" width="19.505" height="19.5" viewBox="0 0 19.505 19.5"><defs><style>.a{fill:#fff;}</style></defs><g transform="translate(-83.999 -193)"><path class="a" d="M102.754,202.066H95.185a.75.75,0,0,1-.75-.75V193.75a.75.75,0,0,1,.75-.75,8.315,8.315,0,0,1,8.319,8.316A.75.75,0,0,1,102.754,202.066Zm-6.819-1.5h6.029a6.817,6.817,0,0,0-6.029-6.026Z"/><path class="a" d="M92.314,212.5a8.315,8.315,0,0,1,0-16.631h0a.75.75,0,1,1,0,1.5h0a6.815,6.815,0,1,0,6.817,6.816.75.75,0,0,1,1.5,0A8.325,8.325,0,0,1,92.314,212.5Z"/></g></svg>