<svg xmlns="http://www.w3.org/2000/svg" width="18" height="20" viewBox="0 0 18 20"><defs><style>.a{fill:#fff;}</style></defs><g transform="translate(-5 -3.9)"><path class="a" d="M14,23.9a4.687,4.687,0,0,1-2.945-1,.9.9,0,0,1-.164-1.162.871.871,0,0,1,1.145-.166,3.539,3.539,0,0,0,4.009,0,.871.871,0,0,1,1.145.166.9.9,0,0,1-.164,1.162A5.093,5.093,0,0,1,14,23.9Zm8.182-4.149H5.818a.83.83,0,0,1,0-1.66h.245a.563.563,0,0,0,.573-.581V12.448a7.282,7.282,0,0,1,4.827-6.722,2.675,2.675,0,0,1,5.073,0,7.119,7.119,0,0,1,4.827,6.722V17.51a.563.563,0,0,0,.573.581h.245a.83.83,0,0,1,0,1.66ZM8.191,18.091H19.809a1.431,1.431,0,0,1-.082-.581V12.448A5.525,5.525,0,0,0,15.555,7.22a.824.824,0,0,1-.573-.83A.873.873,0,0,0,14,5.56a.873.873,0,0,0-.982.83.994.994,0,0,1-.409.747.3.3,0,0,1-.245.083,5.448,5.448,0,0,0-4.091,5.228V17.51A1.431,1.431,0,0,1,8.191,18.091Z" transform="translate(0 0)"/></g></svg>