<svg xmlns="http://www.w3.org/2000/svg" width="66.453" height="78.5" viewBox="0 0 66.453 78.5"><defs><style>.a,.b{fill:#fff;}.b{fill-rule:evenodd;}</style></defs><g transform="translate(-1476 -400)"><path class="a" d="M354.464,139.6H343.085a2.287,2.287,0,0,0-2.285,2.285v26a2.26,2.26,0,0,0,2.32,2.179h13.664c4.877,0,8.87-3.734,8.87-8.3a8.3,8.3,0,0,0-4.912-7.432,8.658,8.658,0,0,0,2.438-6.019A8.747,8.747,0,0,0,354.464,139.6Zm6.384,21.661a4.278,4.278,0,0,1-4.264,4.264H345.5V143.946h8.752a4.123,4.123,0,0,1,.624,8.2v.047h-4.335a2.391,2.391,0,0,0,0,4.782h4.335v.012h1.72A4.286,4.286,0,0,1,360.848,161.261Z" transform="translate(1175.339 276.843)"/><path class="a" d="M90.486,606.586h0a3.3,3.3,0,0,0,3.286-3.286h0v-3.958a.73.73,0,0,0-1.461,0V603.3h0a1.76,1.76,0,0,1-.542,1.284,1.827,1.827,0,0,1-1.284.542h0a1.806,1.806,0,0,1-1.284-.542,1.834,1.834,0,0,1-.542-1.3h0V599.33a.73.73,0,0,0-1.461,0v3.958h0a3.318,3.318,0,0,0,3.286,3.3Z" transform="translate(1399.067 -128.091)"/><path class="a" d="M153.67,606.674a.73.73,0,0,0,0-1.461h-2.026a1.287,1.287,0,0,1-1.284-1.284h0v-4.5a.73.73,0,1,0-1.461,0v4.488h0a2.755,2.755,0,0,0,2.745,2.756h2.026Z" transform="translate(1344.635 -128.179)"/><path class="a" d="M.68,606.392a.73.73,0,0,0,.813-.636l.624-5.277,2.238,5.195a.757.757,0,0,0,.377.389.73.73,0,0,0,.966-.389l2.238-5.195.624,5.277a.73.73,0,1,0,1.449-.177l-.73-6.125v-.012c0-.035-.012-.071-.012-.094l-.035-.141A1.669,1.669,0,0,0,9.137,599a1.255,1.255,0,0,0-.907-.589H8.018a.667.667,0,0,0-.212.035,1.22,1.22,0,0,0-.86.7l-1.92,4.382-1.9-4.405c-.012-.023-.024-.059-.035-.082-.024-.047-.059-.094-.082-.141a2.075,2.075,0,0,0-.153-.177,1.221,1.221,0,0,0-1.025-.318H1.822a.948.948,0,0,0-.212.047c-.024.012-.035.012-.059.024-.047.024-.094.035-.141.059a1.15,1.15,0,0,0-.636.907l-.73,6.125A.731.731,0,0,0,.68,606.392Z" transform="translate(1475.964 -127.897)"/><path class="a" d="M183.845,606.586a.734.734,0,0,0,.73-.73v-5.8h2.085a.73.73,0,1,0,0-1.461h-5.63a.73.73,0,1,0,0,1.461h2.085v5.8A.719.719,0,0,0,183.845,606.586Z" transform="translate(1316.934 -128.091)"/><path class="a" d="M242.9,599.33v6.526a.73.73,0,1,0,1.461,0V599.33a.73.73,0,1,0-1.461,0Z" transform="translate(1261.707 -128.091)"/><path class="a" d="M323.107,603.059a.734.734,0,0,0,.73.73h2.544l.259,2.073a.73.73,0,1,0,1.449-.177l-.506-4.076V601.6c0-.024-.012-.047-.012-.071a4.5,4.5,0,0,0-.13-.6,3.44,3.44,0,0,0-.247-.624,3.088,3.088,0,0,0-2.792-1.8h-.012a2.767,2.767,0,0,0-.707.082,2.82,2.82,0,0,0-.648.236,3.544,3.544,0,0,0-1.814,2.78l-.459,4.076a.735.735,0,1,0,1.461.165l.459-4.076a2.077,2.077,0,0,1,1.025-1.637,1.106,1.106,0,0,1,.33-.118,1.943,1.943,0,0,1,.365-.047h.012a1.668,1.668,0,0,1,1.484.989,2.969,2.969,0,0,1,.153.389,2.162,2.162,0,0,1,.082.377v.059l.071.542h-2.356A.739.739,0,0,0,323.107,603.059Z" transform="translate(1193.02 -128.003)"/><path class="a" d="M396.126,606.339c.024-.012.047-.012.059-.024h.012a.349.349,0,0,0,.094-.047.711.711,0,0,0,.153-.106,1.041,1.041,0,0,0,.377-.8V599.33a.73.73,0,1,0-1.461,0v4.794l-3.9-4.971a1.017,1.017,0,0,0-.777-.4h-.012a.779.779,0,0,0-.177.012h0c-.024,0-.047.012-.083.012s-.071.012-.106.023a1.061,1.061,0,0,0-.577.483h0a1.144,1.144,0,0,0-.059.13h0a1.384,1.384,0,0,0-.059.236.443.443,0,0,0-.012.13h0v6.054a.73.73,0,0,0,1.461,0V601l3.9,4.971.012.012h0l.023.023a.707.707,0,0,0,.094.094.553.553,0,0,0,.141.106.351.351,0,0,0,.094.047.879.879,0,0,0,.8.083Z" transform="translate(1132.287 -128.091)"/><path class="a" d="M459.286,600.061h2.156a.73.73,0,1,0,0-1.461h-2.156a2.847,2.847,0,0,0-2.038.848,2.9,2.9,0,0,0-.848,2.038h0v2.2h0a2.9,2.9,0,0,0,2.886,2.886h2.156a.73.73,0,1,0,0-1.461h-2.156a1.448,1.448,0,0,1-1.425-1.437h0v-2.2h0a1.417,1.417,0,0,1,.424-1,1.436,1.436,0,0,1,1-.412Z" transform="translate(1073.355 -128.091)"/><path class="a" d="M509.616,598.6h0a3.454,3.454,0,0,0-2.4.954A3.239,3.239,0,0,0,506.2,601.9h0v1.366h0a3.239,3.239,0,0,0,1.013,2.344,3.485,3.485,0,0,0,2.4.966h0a3.453,3.453,0,0,0,2.4-.966,3.239,3.239,0,0,0,1.013-2.344h0V601.9h0a3.24,3.24,0,0,0-1.013-2.344A3.506,3.506,0,0,0,509.616,598.6Zm1.955,4.676a1.8,1.8,0,0,1-.565,1.3,2,2,0,0,1-1.39.554h0a2,2,0,0,1-1.39-.554,1.807,1.807,0,0,1-.565-1.3h0V601.91h0a1.8,1.8,0,0,1,.565-1.3,2,2,0,0,1,1.39-.554h0a2,2,0,0,1,1.39.554,1.807,1.807,0,0,1,.565,1.3h0v1.366Z" transform="translate(1029.421 -128.091)"/><path class="a" d="M264.193,598.6h-2.874a.789.789,0,0,0-.483.212h0l-.012.012a.7.7,0,0,0-.165.247.821.821,0,0,0-.059.294h0v6.49a.734.734,0,0,0,.73.73H264.9a2.408,2.408,0,0,0,1.684-.7,2.358,2.358,0,0,0,.695-1.684h0a2.379,2.379,0,0,0-.648-1.637l-.047-.047a2.66,2.66,0,0,0-.412-.33,2.382,2.382,0,0,0,.365-1.249h0a2.313,2.313,0,0,0-.683-1.649,2.394,2.394,0,0,0-1.661-.695Zm.612,1.72a.855.855,0,0,1,.259.613h0a.835.835,0,0,1-.259.612h0a.936.936,0,0,1-.554.259h-.33a.73.73,0,1,0,0,1.461h.978a.928.928,0,0,1,.648.271l.024.024a.923.923,0,0,1,.247.624h0a.925.925,0,0,1-.919.919h-2.827v-5.041h2.12A.883.883,0,0,1,264.805,600.32Z" transform="translate(1246.092 -128.091)"/><path class="a" d="M15.215,166.115a2.739,2.739,0,0,0,3.015-2.438L20.48,143l7.963,20.236.012.035v.012l.012.035.012.035.012.024.012.035.012.035.012.024.024.047h0l.024.047.012.024a2.1,2.1,0,0,0,.294.424l.012.012a.59.59,0,0,0,.082.094h0l.071.071.071.071h0c.035.024.059.059.094.082l.012.012a2.719,2.719,0,0,0,.424.295l.024.012.035.024h.012l.047.024.024.012.035.012.035.012.035.012.035.012.035.012h.012l.035.012a2.708,2.708,0,0,0,.9.188h.188a2.68,2.68,0,0,0,.8-.153l.024-.012.035-.012.024-.012h.012l.024-.012.024-.012.024-.012.035-.012.035-.012.035-.012.035-.012.024-.012.047-.024h0l.047-.024.012-.012a2.3,2.3,0,0,0,.471-.342l.047-.035.012-.012a2.444,2.444,0,0,0,.554-.73l.012-.012.024-.035.012-.024.024-.035.012-.024.024-.047v-.012l.024-.047.024-.047h0l.012-.024L41.541,143l2.226,20.672a2.742,2.742,0,0,0,5.454-.577l-2.65-24.371v-.024h0a5.431,5.431,0,0,0-.177-.848,5.089,5.089,0,0,0-.33-.789,4.516,4.516,0,0,0-3.4-2.368h0a.623.623,0,0,0-.153-.012,4.57,4.57,0,0,0-.695-.024H41.8a4.374,4.374,0,0,0-.825.106,4.519,4.519,0,0,0-3.192,2.756L31,154.748l-6.785-17.221a4.47,4.47,0,0,0-4.017-2.862h-.012a4.621,4.621,0,0,0-.695.024c-.047,0-.094.012-.153.012h0a4.55,4.55,0,0,0-3.734,3.157,5.432,5.432,0,0,0-.177.848h0v.024L12.777,163.1A2.732,2.732,0,0,0,15.215,166.115Z" transform="translate(1464.738 281.201)"/><path class="b" d="M16.009,0H57.978a5.544,5.544,0,0,1,5.359,5.677V8.387a2.609,2.609,0,1,1-5.195.024V6.926a1.717,1.717,0,0,0-1.708-1.708H14.384a1.709,1.709,0,0,0-1.708,1.708V8.375c0,3.816-4.947,3.781-4.947.082V5.677A5.527,5.527,0,0,1,13.076,0ZM35.244,63.265H62.454c6.219,0,6.278-6.608,5.642-9.871-.342-2.191-4.076-2.179-4.476,0v2.544a2.114,2.114,0,0,1-2.108,2.108H9.331a2.114,2.114,0,0,1-2.108-2.108V53.394c-.412-2.167-4.134-2.191-4.476,0-.636,3.263-.565,9.871,5.642,9.871H35.244Z" transform="translate(1473.804 400)"/></g></svg>