<svg xmlns="http://www.w3.org/2000/svg" width="20" height="20" viewBox="0 0 20 20"><defs><style>.a{fill:#fff;}</style></defs><g transform="translate(-3 -3)"><g transform="translate(10.28 10.28)"><path class="a" d="M15.182,17.864a2.682,2.682,0,1,1,2.682-2.682A2.715,2.715,0,0,1,15.182,17.864Zm0-3.831a1.149,1.149,0,1,0,1.149,1.149A1.179,1.179,0,0,0,15.182,14.033Z" transform="translate(-12.5 -12.5)"/></g><g transform="translate(3 3)"><path class="a" d="M11.966,22.923a1.343,1.343,0,0,1-1.3-1.3V20.241A5.931,5.931,0,0,1,9.437,19.7l-1,1a1.4,1.4,0,0,1-1.839,0L5.146,19.245a1.345,1.345,0,0,1-.307-.383,1.418,1.418,0,0,1,0-.92,1.6,1.6,0,0,1,.307-.46l.92-.92a8.514,8.514,0,0,1-.536-1.226H4.3A1.474,1.474,0,0,1,3,13.958V11.966a1.414,1.414,0,0,1,.383-.92,1.269,1.269,0,0,1,.92-.383H5.682a5.932,5.932,0,0,1,.536-1.226l-1-1a1.3,1.3,0,0,1,0-1.839L6.678,5.146a1.269,1.269,0,0,1,.92-.383,1.414,1.414,0,0,1,.92.383l1,1a8.514,8.514,0,0,1,1.226-.536V4.3a1.269,1.269,0,0,1,.383-.92A.989.989,0,0,1,11.966,3h1.992a1.308,1.308,0,0,1,1.3,1.3V5.682a5.932,5.932,0,0,1,1.226.536l1-1a1.4,1.4,0,0,1,1.839,0l1.456,1.456a1.345,1.345,0,0,1,.307.383.972.972,0,0,1,.077.46.972.972,0,0,1-.077.46,1.6,1.6,0,0,1-.307.46l-1,1a8.514,8.514,0,0,1,.536,1.226H21.7a1.308,1.308,0,0,1,1.3,1.3v1.992a1.308,1.308,0,0,1-1.3,1.3H20.318a5.932,5.932,0,0,1-.536,1.226l1,1a1.3,1.3,0,0,1,0,1.839l-1.456,1.456a.977.977,0,0,1-.46.307,1.137,1.137,0,0,1-1,0,.765.765,0,0,1-.383-.307l-1-1a8.514,8.514,0,0,1-1.226.536V21.7a1.308,1.308,0,0,1-1.3,1.3H11.966Zm.23-1.533h1.533V19.7a.746.746,0,0,1,.613-.766,5.52,5.52,0,0,0,1.839-.766.716.716,0,0,1,1,.077L18.4,19.475,19.475,18.4l-1.226-1.226a.7.7,0,0,1-.153-.843.268.268,0,0,1,.077-.153,6.633,6.633,0,0,0,.766-1.839.746.746,0,0,1,.766-.613h1.686V12.2H19.7a.746.746,0,0,1-.766-.613,5.911,5.911,0,0,0-.766-1.916.8.8,0,0,1,.077-.92l1.226-1.226L18.4,6.448,17.176,7.674a.7.7,0,0,1-.92.077,5.52,5.52,0,0,0-1.839-.766h-.077a.746.746,0,0,1-.613-.766V4.533H12.2V6.218a.815.815,0,0,1-.69.766h0a6.268,6.268,0,0,0-1.839.766.8.8,0,0,1-.92-.077L7.521,6.448,6.448,7.521,7.674,8.747a.7.7,0,0,1,.077.92,5.911,5.911,0,0,0-.766,1.916.746.746,0,0,1-.766.613H4.533v1.533H6.218a.746.746,0,0,1,.766.613,5.911,5.911,0,0,0,.766,1.916.8.8,0,0,1-.077.92L6.448,18.4l1.073,1.073,1.226-1.226a1.07,1.07,0,0,1,.69-.23.4.4,0,0,1,.307.153,6.633,6.633,0,0,0,1.839.766.746.746,0,0,1,.613.766ZM6.3,18.556Zm0-.383ZM21.621,12.2Z" transform="translate(-3 -3)"/></g></g></svg>