<svg xmlns="http://www.w3.org/2000/svg" xmlns:xlink="http://www.w3.org/1999/xlink" width="36.994" height="37" viewBox="0 0 36.994 37"><defs><style>.a{fill:#fff;}.b{filter:url(#a);}</style><filter id="a" x="0" y="0" width="36.994" height="37" filterUnits="userSpaceOnUse"><feOffset dy="3" input="SourceAlpha"/><feGaussianBlur stdDeviation="3" result="b"/><feFlood flood-opacity="0.161"/><feComposite operator="in" in2="b"/><feComposite in="SourceGraphic"/></filter></defs><g class="b" transform="matrix(1, 0, 0, 1, 0, 0)"><path class="a" d="M1241.62,241.8l-4.172-2.268a1.446,1.446,0,0,0-1.707.261l-1.816,1.915a18.939,18.939,0,0,1-2.23-1.8,21.194,21.194,0,0,1-1.908-2.35l1.891-1.863a1.429,1.429,0,0,0,.241-1.689l-2.263-4.168a1.431,1.431,0,0,0-1.773-.654l-3.228,1.252a2,2,0,0,0-1.272,2.083,18.007,18.007,0,0,0,4.665,10.293l.643.641a17.98,17.98,0,0,0,10.295,4.631h.167v0a2.01,2.01,0,0,0,1.865-1.284l1.254-3.237A1.444,1.444,0,0,0,1241.62,241.8Zm-2.208,4.4a.289.289,0,0,1-.291.178,16.241,16.241,0,0,1-9.252-4.187l-.589-.578a16.278,16.278,0,0,1-4.19-9.274.282.282,0,0,1,.186-.294l2.982-1.169,2.054,3.764-1.906,1.877a1.425,1.425,0,0,0-.179,1.825,22.682,22.682,0,0,0,2.23,2.783,20.766,20.766,0,0,0,2.662,2.131,1.42,1.42,0,0,0,1.819-.186l1.877-1.919,3.77,2.049Z" transform="translate(-1214.37 -223.09)"/></g></svg>