<svg xmlns="http://www.w3.org/2000/svg" width="17" height="20" viewBox="0 0 17 20"><defs><style>.a{fill:#fff;}</style></defs><g transform="translate(-5 -3)"><path class="a" d="M19.914,23H7.086a2.3,2.3,0,0,1-.773-.154,1.825,1.825,0,0,1-.7-.462,2.684,2.684,0,0,1-.464-.692A2.267,2.267,0,0,1,5,20.923V5.077A2.073,2.073,0,0,1,7.086,3h11.05a.7.7,0,0,1,.541.231l3.168,3.154A1.108,1.108,0,0,1,22,6.923v14A2.073,2.073,0,0,1,19.914,23ZM7.086,4.538a.527.527,0,0,0-.541.538V21.231a.268.268,0,0,0,.077.154c.077.077.077.077.155.077H19.991a.527.527,0,0,0,.541-.538V7.231L17.75,4.538Zm9.5,13.846H10.409a.769.769,0,1,1,0-1.538h6.182a.769.769,0,1,1,0,1.538Zm0-3.077H10.409a.769.769,0,1,1,0-1.538h6.182a.769.769,0,1,1,0,1.538ZM13.5,12.231H10.409a.769.769,0,1,1,0-1.538H13.5a.769.769,0,1,1,0,1.538Z" transform="translate(0)"/></g></svg>