<svg xmlns="http://www.w3.org/2000/svg" width="30" height="30" viewBox="0 0 30 30"><defs><style>.a{fill:#0075c9;}</style></defs><g transform="translate(5.59 5.695)"><path class="a" d="M20.623,23.817a.845.845,0,0,1-.469-.094l-4.781-2.531-4.781,2.531A1.041,1.041,0,0,1,9.56,23.63a.891.891,0,0,1-.375-.937l.937-5.25-3.844-3.75A.951.951,0,0,1,6,12.755a.908.908,0,0,1,.75-.656l5.344-.75,2.344-4.781a.969.969,0,0,1,1.688,0l2.344,4.781,5.344.75a.908.908,0,0,1,.75.656.849.849,0,0,1-.281.938l-3.844,3.75.938,5.25A.891.891,0,0,1,21,23.63C21,23.723,20.81,23.817,20.623,23.817Zm-5.25-4.594a.845.845,0,0,1,.469.094L19.4,21.192l-.75-3.937a.945.945,0,0,1,.281-.844l2.813-2.719L17.81,13.13c-.281,0-.562-.281-.75-.469L15.373,9l-1.781,3.563a.742.742,0,0,1-.75.469L8.9,13.6l2.812,2.719a1.309,1.309,0,0,1,.281.844L11.341,21.1,14.9,19.223Z" transform="translate(-5.962 -6.075)"/></g><path class="a" d="M15,30A15,15,0,1,1,30,15,15.044,15.044,0,0,1,15,30ZM15,1.875A13.125,13.125,0,1,0,28.125,15,13.164,13.164,0,0,0,15,1.875Z"/></svg>