<svg xmlns="http://www.w3.org/2000/svg" width="20" height="20" viewBox="0 0 20 20">
  <defs>
    <style>
      .a{fill:#4d535c;}
    </style>
  </defs>
  <g transform="translate(-3.962 -4.1)">
    <path d="M4.826,24.1a.753.753,0,0,1-.582-.251.677.677,0,0,1-.25-.753l1-4.854a.461.461,0,0,1,.25-.418L15.809,7.2h0l2.829-2.845a.8.8,0,0,1,1.165,0L23.63,8.2a.521.521,0,0,1,.333.5.907.907,0,0,1-.25.586l-2.829,2.845h0L12.148,20.92h0l-1.914,1.925a1.817,1.817,0,0,1-.416.251l-4.826,1Zm4.826-1.757ZM6.573,18.828l-.666,3.347,3.328-.669L10.4,20.334,7.738,17.656ZM8.9,16.485l2.663,2.678,7.488-7.531L16.391,8.954Zm8.653-8.7,2.663,2.678L21.966,8.7,19.3,6.025Z" class="a" transform="translate(0 0)"/>
  </g>
</svg>
