<svg xmlns="http://www.w3.org/2000/svg" width="175" height="58" viewBox="0 0 175 58"><defs><style>.a{fill:#FFFFFF;}</style></defs><g transform="translate(-55.461 -43.912)"><path class="a" d="M.461-.046,2.435-11.378l3.332.008a3.8,3.8,0,0,1,2.606.778A2.487,2.487,0,0,1,9.13-8.421,2.948,2.948,0,0,1,7.078-5.969,2.113,2.113,0,0,1,8.221-4.957a2.822,2.822,0,0,1,.308,1.58A3.3,3.3,0,0,1,7.3-.945a4.458,4.458,0,0,1-2.887.9Zm2.388-5.3-.71,4.078,2.317.008a2.777,2.777,0,0,0,1.779-.568A2.213,2.213,0,0,0,7.07-3.362a1.817,1.817,0,0,0-.32-1.432A1.743,1.743,0,0,0,5.4-5.339Zm.211-1.2,2.115.008a2.733,2.733,0,0,0,1.674-.506,1.981,1.981,0,0,0,.8-1.393,1.418,1.418,0,0,0-.324-1.245,2.079,2.079,0,0,0-1.408-.459l-2.232-.008ZM15.3-.046a1.882,1.882,0,0,1-.055-.444l.023-.444A3.465,3.465,0,0,1,12.8.109a2.526,2.526,0,0,1-1.814-.7,2.129,2.129,0,0,1-.636-1.724,2.591,2.591,0,0,1,1.174-2.09,5.009,5.009,0,0,1,2.883-.751l1.475.008.094-.669a1.536,1.536,0,0,0-.293-1.195,1.414,1.414,0,0,0-1.112-.455,2.182,2.182,0,0,0-1.284.354,1.507,1.507,0,0,0-.683.977l-1.42.008a2.255,2.255,0,0,1,.577-1.311,3.359,3.359,0,0,1,1.3-.887,4.219,4.219,0,0,1,1.646-.3,2.8,2.8,0,0,1,2.052.8A2.47,2.47,0,0,1,17.381-5.8l-.687,4.172-.039.6a2.93,2.93,0,0,0,.094.848l-.016.132Zm-2.216-1.09a2.468,2.468,0,0,0,1.284-.323A3.247,3.247,0,0,0,15.407-2.4l.3-1.736L14.642-4.14a4.058,4.058,0,0,0-2.044.42,1.548,1.548,0,0,0-.8,1.191,1.2,1.2,0,0,0,.277.985A1.321,1.321,0,0,0,13.082-1.136Zm9.289.078a2.146,2.146,0,0,0,1.365-.44,2.091,2.091,0,0,0,.8-1.195L25.866-2.7a3,3,0,0,1-.636,1.448,3.548,3.548,0,0,1-1.307,1.02,3.554,3.554,0,0,1-1.615.342A3.018,3.018,0,0,1,20.525-.44a3.072,3.072,0,0,1-1.073-1.486,4.941,4.941,0,0,1-.234-2.144l.039-.389a5.574,5.574,0,0,1,.71-2.171,4.1,4.1,0,0,1,1.467-1.49,3.651,3.651,0,0,1,2-.5,2.857,2.857,0,0,1,2.122.887,3.064,3.064,0,0,1,.8,2.171l-1.319-.008a2.018,2.018,0,0,0-.46-1.335,1.607,1.607,0,0,0-1.2-.541,2.254,2.254,0,0,0-1.83.817,4.274,4.274,0,0,0-.909,2.35l-.023.2a6.733,6.733,0,0,0-.016,1.027,2.343,2.343,0,0,0,.515,1.44A1.656,1.656,0,0,0,22.371-1.058ZM30.185-3.93l-1.108.988-.5,2.9H27.165L29.249-12h1.412L29.413-4.856l.866-.872,3-2.74h1.834L31.231-4.88,33.9-.046H32.354ZM39.715.109A3.644,3.644,0,0,1,37.83-.412a3.381,3.381,0,0,1-1.26-1.467,5.515,5.515,0,0,1-.507-2.175,10.305,10.305,0,0,1,.211-2.327,7.967,7.967,0,0,1,.89-2.5A5.634,5.634,0,0,1,38.7-10.662a4.432,4.432,0,0,1,2.793-.872,3.365,3.365,0,0,1,2.622,1.148,4.766,4.766,0,0,1,1.03,3.024,11.1,11.1,0,0,1-.168,2.078,8.586,8.586,0,0,1-.71,2.343,5.847,5.847,0,0,1-1.3,1.813A4.474,4.474,0,0,1,39.715.109ZM43.7-7a3.919,3.919,0,0,0-.538-2.378,2.051,2.051,0,0,0-1.74-.876,2.965,2.965,0,0,0-1.869.56A4.244,4.244,0,0,0,38.2-7.926a9.1,9.1,0,0,0-.667,2.985l-.023.506a3.952,3.952,0,0,0,.546,2.389,2.034,2.034,0,0,0,1.724.9,3.009,3.009,0,0,0,2.446-1.062,6.026,6.026,0,0,0,1.291-3.094A13.9,13.9,0,0,0,43.7-7ZM46.912-.046l1.28-7.308h-1.3l.2-1.113h1.3l.14-1a3.3,3.3,0,0,1,.983-1.985,2.927,2.927,0,0,1,2.091-.732,4.92,4.92,0,0,1,1.007.132l-.172,1.175a4.642,4.642,0,0,0-.757-.093,1.612,1.612,0,0,0-1.19.455,2.072,2.072,0,0,0-.566,1.21l-.125.833h1.748l-.2,1.113H49.6L48.325-.046Zm5.622,0,1.28-7.308h-1.3l.2-1.113H54l.14-1a3.3,3.3,0,0,1,.983-1.985,2.927,2.927,0,0,1,2.091-.732,4.92,4.92,0,0,1,1.007.132l-.172,1.175a4.642,4.642,0,0,0-.757-.093,1.612,1.612,0,0,0-1.19.455,2.072,2.072,0,0,0-.566,1.21l-.125.833h1.748l-.2,1.113H55.218L53.946-.046ZM59-.046h-1.4l1.467-8.421h1.4Zm1.163-11.5a.774.774,0,0,1,.6.214.8.8,0,0,1,.238.6.845.845,0,0,1-.238.6.855.855,0,0,1-.6.249.779.779,0,0,1-.6-.21.76.76,0,0,1-.226-.591.882.882,0,0,1,.234-.607A.826.826,0,0,1,60.161-11.542ZM65.034-1.058A2.146,2.146,0,0,0,66.4-1.5a2.091,2.091,0,0,0,.8-1.195L68.529-2.7a3,3,0,0,1-.636,1.448,3.548,3.548,0,0,1-1.307,1.02,3.554,3.554,0,0,1-1.615.342A3.018,3.018,0,0,1,63.189-.44a3.072,3.072,0,0,1-1.073-1.486,4.941,4.941,0,0,1-.234-2.144l.039-.389a5.574,5.574,0,0,1,.71-2.171A4.1,4.1,0,0,1,64.1-8.121a3.651,3.651,0,0,1,2-.5,2.857,2.857,0,0,1,2.122.887,3.064,3.064,0,0,1,.8,2.171l-1.319-.008a2.018,2.018,0,0,0-.46-1.335,1.607,1.607,0,0,0-1.2-.541,2.254,2.254,0,0,0-1.83.817,4.274,4.274,0,0,0-.909,2.35l-.023.2a6.733,6.733,0,0,0-.016,1.027,2.343,2.343,0,0,0,.515,1.44A1.656,1.656,0,0,0,65.034-1.058ZM73.472.109a3.047,3.047,0,0,1-2.466-1.16,3.983,3.983,0,0,1-.749-2.887l.039-.335a5.593,5.593,0,0,1,.745-2.288,4.328,4.328,0,0,1,1.494-1.56,3.493,3.493,0,0,1,1.9-.5,2.688,2.688,0,0,1,2.044.864A3.547,3.547,0,0,1,77.3-5.5a6.579,6.579,0,0,1-.031,1.012l-.086.646H71.662A2.839,2.839,0,0,0,72.041-1.9a1.794,1.794,0,0,0,1.549.833A3.007,3.007,0,0,0,75.9-2.187l.811.685A3.711,3.711,0,0,1,75.341-.307,3.889,3.889,0,0,1,73.472.109Zm.9-7.557a2.066,2.066,0,0,0-1.525.591A4.2,4.2,0,0,0,71.81-5.027l4.1.008.031-.125a2.3,2.3,0,0,0-.316-1.63A1.487,1.487,0,0,0,74.37-7.448Z" transform="translate(55 101.801)"/><path class="a" d="M24.643-.134h6.664l3.931-18.792h-14L19.705-11.61H24.5a5.226,5.226,0,0,1-2.469,2.941,8.331,8.331,0,0,1-3.811.837q-3.212,0-4.6-1.841a7.849,7.849,0,0,1-1.39-4.853,19.041,19.041,0,0,1,.5-4.351,13.448,13.448,0,0,1,1.534-3.873,8.543,8.543,0,0,1,2.613-2.773,6.6,6.6,0,0,1,3.739-1.052,5.521,5.521,0,0,1,3.308.932,4.41,4.41,0,0,1,1.534,3.323H35.43a14.015,14.015,0,0,0-1.175-5.762,10.886,10.886,0,0,0-3.068-3.969,12.818,12.818,0,0,0-4.506-2.3,19.51,19.51,0,0,0-5.441-.741,19.338,19.338,0,0,0-8.725,1.841,17.933,17.933,0,0,0-6.088,4.829A20.259,20.259,0,0,0,2.855-21.58,26.806,26.806,0,0,0,1.68-13.714a20.211,20.211,0,0,0,.192,2.534A15.675,15.675,0,0,0,2.615-8.1a16.416,16.416,0,0,0,1.51,3.18A10.747,10.747,0,0,0,6.642-2.094,12.592,12.592,0,0,0,10.405-.086a15.81,15.81,0,0,0,5.178.765A13.6,13.6,0,0,0,20.736-.3a9.53,9.53,0,0,0,4.1-3.228l.1.1ZM45.018-7.259a2.3,2.3,0,0,1,.935-2.032,4.283,4.283,0,0,1,2.133-.741q1.294-.1,2.589-.311a8.609,8.609,0,0,0,2.445-.789,10.533,10.533,0,0,1-1.558,4.4,3.988,3.988,0,0,1-3.524,1.626,4.929,4.929,0,0,1-2.085-.43A1.7,1.7,0,0,1,45.018-7.259ZM47.75-17.444a3.092,3.092,0,0,1,1.366-1.96,4.731,4.731,0,0,1,2.421-.574,4.813,4.813,0,0,1,2.037.43,1.7,1.7,0,0,1,.935,1.721,2.07,2.07,0,0,1-.719,1.721,4.1,4.1,0,0,1-1.75.789,13.657,13.657,0,0,1-2.253.263q-1.222.048-2.229.1a34.847,34.847,0,0,0-4.89.669,11.6,11.6,0,0,0-3.787,1.482,7.1,7.1,0,0,0-2.469,2.63,8.409,8.409,0,0,0-.887,4.064,6.6,6.6,0,0,0,.647,3.036,5.543,5.543,0,0,0,1.774,2.056A7.635,7.635,0,0,0,40.535.129,12.735,12.735,0,0,0,43.58.488,12.2,12.2,0,0,0,45.713.3a12.144,12.144,0,0,0,2.109-.574A10.678,10.678,0,0,0,49.74-1.21a6.017,6.017,0,0,0,1.51-1.315h.1a5.165,5.165,0,0,0,.048,1.219,7.376,7.376,0,0,0,.288,1.172h9.3a5.649,5.649,0,0,1-.384-2.2,10.014,10.014,0,0,1,.216-1.506q.216-1.124.551-2.654t.743-3.3q.407-1.769.743-3.491t.551-3.228a18.086,18.086,0,0,0,.216-2.463,4.966,4.966,0,0,0-1.246-3.562A7.891,7.891,0,0,0,59.28-24.52a15.713,15.713,0,0,0-3.955-.861q-2.109-.191-3.787-.191a27.215,27.215,0,0,0-4.363.335,11.473,11.473,0,0,0-3.715,1.243,9.005,9.005,0,0,0-2.852,2.486,10.593,10.593,0,0,0-1.774,4.064ZM64.338-8.263a7.7,7.7,0,0,0,1.007,4.519A7.9,7.9,0,0,0,68.173-1.09,11.228,11.228,0,0,0,72.032.177a28.756,28.756,0,0,0,4.147.311,19.438,19.438,0,0,0,5.2-.646,12.7,12.7,0,0,0,3.979-1.817A8.009,8.009,0,0,0,87.9-4.868a8.332,8.332,0,0,0,.887-3.873,7.387,7.387,0,0,0-.647-3.275,5.454,5.454,0,0,0-1.966-2.176,10.922,10.922,0,0,0-3.308-1.363,46.25,46.25,0,0,0-4.626-.885,3.523,3.523,0,0,1-1.558-.478,1.517,1.517,0,0,1-.6-1.387,1.611,1.611,0,0,1,.863-1.554,3.857,3.857,0,0,1,1.822-.454,5.642,5.642,0,0,1,1.151.12,2.483,2.483,0,0,1,1.055.5,1.962,1.962,0,0,1,.671,1.96h8.485a6.488,6.488,0,0,0-.791-4.041A6.572,6.572,0,0,0,86.7-24.162a11.762,11.762,0,0,0-3.715-1.124,29.2,29.2,0,0,0-4.027-.287,24.546,24.546,0,0,0-4.458.406,11.989,11.989,0,0,0-3.979,1.458,8.252,8.252,0,0,0-2.852,2.8,8.286,8.286,0,0,0-1.079,4.423,5.719,5.719,0,0,0,.815,3.228,6.071,6.071,0,0,0,1.942,1.889,7.956,7.956,0,0,0,2.253.932q1.127.263,1.75.359,1.342.239,2.421.406a11.636,11.636,0,0,1,1.87.43,3.5,3.5,0,0,1,1.222.646,1.333,1.333,0,0,1,.431,1.052,2.4,2.4,0,0,1-.1.6,1.971,1.971,0,0,1-.384.717,2.317,2.317,0,0,1-.863.622,3.737,3.737,0,0,1-1.534.263,4.1,4.1,0,0,1-2.493-.622,2.908,2.908,0,0,1-.863-2.3Zm53.6-7.268a10.137,10.137,0,0,0-.839-4.495,8.276,8.276,0,0,0-2.469-3.132,10.72,10.72,0,0,0-3.787-1.817,18.28,18.28,0,0,0-4.794-.6,17.288,17.288,0,0,0-6.352,1.1,13.124,13.124,0,0,0-4.722,3.084A13.38,13.38,0,0,0,92.047-16.7a16.645,16.645,0,0,0-1.007,5.858,15.4,15.4,0,0,0,.5,3.73,9.372,9.372,0,0,0,1.87,3.682,10.4,10.4,0,0,0,3.835,2.8A15.7,15.7,0,0,0,103.7.488a13.992,13.992,0,0,0,8.773-2.582q3.356-2.582,4.6-7.938h-9.109a10.982,10.982,0,0,1-.5,1.148,5.156,5.156,0,0,1-.815,1.172,4.645,4.645,0,0,1-1.2.932,3.38,3.38,0,0,1-1.654.383,3.214,3.214,0,0,1-1.654-.383,2.761,2.761,0,0,1-1.007-1,4.026,4.026,0,0,1-.479-1.458,11.958,11.958,0,0,1-.12-1.7,12.982,12.982,0,0,1,.24-2.2,9.612,9.612,0,0,1,.839-2.558,6.713,6.713,0,0,1,1.606-2.1,3.709,3.709,0,0,1,2.541-.885,3.211,3.211,0,0,1,2.4.717,3.149,3.149,0,0,1,.671,2.439Zm8.773,8.272a2.3,2.3,0,0,1,.935-2.032,4.283,4.283,0,0,1,2.133-.741q1.294-.1,2.589-.311a8.609,8.609,0,0,0,2.445-.789,10.533,10.533,0,0,1-1.558,4.4,3.988,3.988,0,0,1-3.524,1.626,4.929,4.929,0,0,1-2.085-.43A1.7,1.7,0,0,1,126.707-7.259Zm2.733-10.185a3.092,3.092,0,0,1,1.366-1.96,4.731,4.731,0,0,1,2.421-.574,4.813,4.813,0,0,1,2.037.43,1.7,1.7,0,0,1,.935,1.721,2.07,2.07,0,0,1-.719,1.721,4.1,4.1,0,0,1-1.75.789,13.657,13.657,0,0,1-2.253.263q-1.222.048-2.229.1a34.847,34.847,0,0,0-4.89.669,11.6,11.6,0,0,0-3.787,1.482,7.1,7.1,0,0,0-2.469,2.63,8.409,8.409,0,0,0-.887,4.064,6.6,6.6,0,0,0,.647,3.036,5.544,5.544,0,0,0,1.774,2.056A7.635,7.635,0,0,0,122.225.129a12.735,12.735,0,0,0,3.044.359A12.2,12.2,0,0,0,127.4.3a12.144,12.144,0,0,0,2.109-.574,10.677,10.677,0,0,0,1.918-.932,6.018,6.018,0,0,0,1.51-1.315h.1a5.165,5.165,0,0,0,.048,1.219,7.372,7.372,0,0,0,.288,1.172h9.3a5.649,5.649,0,0,1-.384-2.2A10.016,10.016,0,0,1,142.5-3.84q.216-1.124.551-2.654t.743-3.3q.407-1.769.743-3.491t.551-3.228a18.084,18.084,0,0,0,.216-2.463,4.966,4.966,0,0,0-1.246-3.562,7.89,7.89,0,0,0-3.092-1.984,15.714,15.714,0,0,0-3.955-.861q-2.109-.191-3.787-.191a27.215,27.215,0,0,0-4.363.335,11.473,11.473,0,0,0-3.715,1.243,9.005,9.005,0,0,0-2.852,2.486,10.593,10.593,0,0,0-1.774,4.064ZM145.931-.134h9.492l2.781-13.15a10.882,10.882,0,0,1,.527-1.817,5.542,5.542,0,0,1,.863-1.506,3.892,3.892,0,0,1,1.294-1.028,4.279,4.279,0,0,1,1.918-.383,3.025,3.025,0,0,1,1.918.6,2.133,2.133,0,0,1,.767,1.793,8.532,8.532,0,0,1-.264,1.889q-.264,1.124-.5,2.223L162.279-.134h9.492l3.02-14.01q.288-1.387.479-2.654a14.452,14.452,0,0,0,.192-2.08,6.871,6.871,0,0,0-.647-3.108,5.5,5.5,0,0,0-1.774-2.08,7.635,7.635,0,0,0-2.589-1.148,12.942,12.942,0,0,0-3.092-.359,9.182,9.182,0,0,0-4.315,1.052,10.976,10.976,0,0,0-3.4,2.726h-.1l.719-3.156h-9.157Z" transform="translate(54.998 79)"/></g></svg>