<svg xmlns="http://www.w3.org/2000/svg" width="1772.051" height="230.509" viewBox="0 0 1772.051 230.509"><defs><style>.a{fill:none;stroke:#fff;stroke-linecap:round;stroke-linejoin:round;stroke-miterlimit:10;stroke-width:2px;}</style></defs><path class="a" d="M1255.36,99.25c-323.032,250.619-447.376-4.27-505.93,56.5-56.251,57.481-79.607,74.89-132.239,74.89-59.541,0-102.633-45.985-102.633-102.481S560.611,25.674,617.191,25.674s100,44.343,100,86.386c0,26.606-18.75,34.489-36.843,44.343-28.948,15.766-40.461,30.547-60.2,30.547-20.724,0-74.672-7.226-75-17.737s17.763-18.722,21.382-31.533c0,0-8.882,25.62,50.33,21.35,59.212-3.942,64.475-25.949,65.133-38.759S666.205,74.944,646.8,75.6c-44.08,1.971-10.855,104.123-52.632,99.853-41.777-3.942-29.277-12.153-23.356-19.051,25.987-31.533.329-87.043,50.33-87.043,16.777,0,2.632,11.825-17.763,11.5-66.12-.985-91.12,133.357-178.622,83.1C360.345,127.124,363.63-35.65,51.868,52.33s-457.531-14.8-565.9-49.943" transform="translate(515.288 -1.127)"/></svg>