<svg xmlns="http://www.w3.org/2000/svg" width="1785.22" height="195.831" viewBox="0 0 1785.22 195.831"><defs><style>.a{fill:none;stroke:#fff;stroke-linecap:round;stroke-linejoin:round;stroke-miterlimit:10;stroke-width:2px;}</style></defs><g transform="translate(1.266 -15)"><path class="a" d="M0,77c292.7,98,524.7-28,672.4,7,150.3,35.6,174.1,123.4,304.2,123.4,65.7,0,112-42.8,112-95.7a95.7,95.7,0,0,0-191.4,0c0,19.7,22.9,64.9,62.7,51.9,16.5-5.4,45.8-33.2,39.8-47.3-7.2-16.7-15.2-20.3-8.3-35.2,9-19.4,34.9-14.6,29.2-10.6,0,0-14,13.4-2.8,22.7,8,6.7,20.3,3.1,22.6-4.1,2.3-7.3,5.3,6.3,1.7,14.2s-13.4,19.7-29.7,16.9c-18.7-3.3-22.7-13.4-31.6-5.2l-25.7,24.2c-7.3,6.6-9.9,11.4-7.1,20.3,5.2,16.1,44.2,61,125.3,47.9,101.9-16.4,108.6-114,207-127.5,111.2-15.2,337.5,56.2,502.5,28.1"/></g></svg>