<svg xmlns="http://www.w3.org/2000/svg" width="83" height="83" viewBox="0 0 83 83">
  <defs>
    <style>
      .a{fill:rgba(0,0,0,0);stroke:#ffffff;stroke-linecap:round;stroke-linejoin:round;stroke-width:3px;}
    </style>
  </defs>
  <g transform="translate(1.5 1.5)">
    <path d="M3248.076,2694.445l2.579-2.573c2.579-2.573,5.309,2.931,9.991,6.62s3.358,6.135-1.289,7.608c-4.706,1.492-7.629-15.7-12.473-9.144s.286,13.434,7.365,22.876,19.03,15.744,24.749,12.1c4.544-2.894,11.6-6.372,2.462-11.918-3.895-2.363-4.879-7.333-9-2.129-1.774,2.239-1.865,3.26,9,11.791,6.594,5.177,23.969,2.715,23.969-19.607a40,40,0,1,0-40,40s10.876-.363,18.7-5.06" class="a" transform="translate(-3225.428 -2670.074)"/>
    <path d="M3299.658,2754.646s-2.01,1.363-.933,4.759c.921,2.9,6.254,11.476,13.821,12.5" class="a" transform="translate(-3268.506 -2720.188)"/>
  </g>
</svg>
