<svg xmlns="http://www.w3.org/2000/svg" width="100" height="84.942" viewBox="0 0 100 84.942"><defs><style>.a{fill:#0075c9;}</style></defs><g transform="translate(-3 -5)"><g transform="translate(39.68 49.402)"><path class="a" d="M26.014,43.527A13.68,13.68,0,0,1,12.5,30.014,13.68,13.68,0,0,1,26.014,16.5,13.68,13.68,0,0,1,39.527,30.014,13.68,13.68,0,0,1,26.014,43.527Zm0-19.305a5.792,5.792,0,0,0,0,11.583,5.792,5.792,0,0,0,0-11.583Z" transform="translate(-12.5 -16.5)"/></g><g transform="translate(3 5)"><path class="a" d="M87.556,89.942H18.83a3.006,3.006,0,0,1-2.7-1.158A50.01,50.01,0,0,1,53.193,5h0a46.805,46.805,0,0,1,21.622,5.019,50.38,50.38,0,0,1,17.375,13.9,3.732,3.732,0,0,1,0,5.405l-29.73,29.73a3.732,3.732,0,0,1-5.405,0,3.732,3.732,0,0,1,0-5.405L84.081,26.622A43.224,43.224,0,0,0,71.34,17.355a39.408,39.408,0,0,0-14.672-3.861V28.938a3.861,3.861,0,1,1-7.722,0V12.722C38.135,13.88,28.483,18.514,21.919,26.236l11.2,11.2a3.732,3.732,0,0,1,0,5.405,3.732,3.732,0,0,1-5.405,0L17.286,32.413a41.435,41.435,0,0,0-6.564,22.78A42.854,42.854,0,0,0,20.375,82.22H85.625a42.854,42.854,0,0,0,9.652-27.027A39.769,39.769,0,0,0,92.961,41.68a3.909,3.909,0,0,1,7.336-2.7A46.153,46.153,0,0,1,103,55.193,51.212,51.212,0,0,1,90.259,88.784,3.006,3.006,0,0,1,87.556,89.942Z" transform="translate(-3 -5)"/></g></g></svg>