<svg xmlns="http://www.w3.org/2000/svg" width="30" height="30" viewBox="0 0 30 30"><defs><style>.a{fill:#0075c9;}</style></defs><path class="a" d="M15,30A15,15,0,1,1,30,15,15.044,15.044,0,0,1,15,30ZM15,1.875A13.125,13.125,0,1,0,28.125,15,13.164,13.164,0,0,0,15,1.875Z"/><g transform="translate(9.094 9.094)"><path class="a" d="M20.575,21.513a.851.851,0,0,1-.656-.281l-4.312-4.312-4.312,4.313a.906.906,0,0,1-1.313,0,.906.906,0,0,1,0-1.313l4.313-4.313L9.981,11.294a.928.928,0,0,1,1.313-1.313l4.313,4.313,4.313-4.313a.906.906,0,0,1,1.313,0,.906.906,0,0,1,0,1.313l-4.312,4.313,4.313,4.313a.906.906,0,0,1,0,1.313A.851.851,0,0,1,20.575,21.513Z" transform="translate(-9.7 -9.7)"/></g></svg>