<svg xmlns="http://www.w3.org/2000/svg" width="30" height="30" viewBox="0 0 30 30"><defs><style>.a{fill:#0075c9;}</style></defs><g transform="translate(-1016 -821)"><path class="a" d="M15,30A15,15,0,1,1,30,15,15.044,15.044,0,0,1,15,30ZM15,1.875A13.125,13.125,0,1,0,28.125,15,13.164,13.164,0,0,0,15,1.875Z" transform="translate(1016 821)"/><path class="a" d="M14.038,22.394a.851.851,0,0,1-.656-.281.906.906,0,0,1,0-1.312l5.25-5.25-5.156-5.156a.928.928,0,0,1,1.313-1.312L20.6,14.894a.906.906,0,0,1,0,1.313l-5.906,5.906A.851.851,0,0,1,14.038,22.394Z" transform="translate(1015.181 820.45)"/></g></svg>