<svg xmlns="http://www.w3.org/2000/svg" width="30" height="30" viewBox="0 0 30 30"><defs><style>.a{fill:#0075c9;}</style></defs><path class="a" d="M15,30A15,15,0,1,1,30,15,15.044,15.044,0,0,1,15,30ZM15,1.875A13.125,13.125,0,1,0,28.125,15,13.164,13.164,0,0,0,15,1.875Z"/><g transform="translate(5.625 5.531)"><path class="a" d="M18.188,24.744H12.563a3.4,3.4,0,0,1-2.625-1.125,3.548,3.548,0,0,1-1.125-2.625V11.337H6.938A.886.886,0,0,1,6,10.4a.886.886,0,0,1,.938-.937h4.875a.925.925,0,0,1-.844-.937A2.6,2.6,0,0,1,13.5,5.9h3.938a2.543,2.543,0,0,1,2.531,2.625,1,1,0,0,1-.844.938h4.687a.886.886,0,0,1,.938.937.886.886,0,0,1-.937.938H21.938v9.656a3.4,3.4,0,0,1-1.125,2.625A3.548,3.548,0,0,1,18.188,24.744Zm-7.5-13.406v9.656a1.922,1.922,0,0,0,1.875,1.875h5.625a1.922,1.922,0,0,0,1.875-1.875V11.337Zm1.219-1.875H18.75a.925.925,0,0,1-.844-.937.725.725,0,0,0-.656-.75H13.313a.669.669,0,0,0-.656.75A.718.718,0,0,1,11.906,9.462Zm6.281,12.469a.886.886,0,0,1-.937-.937V15.369a.938.938,0,0,1,1.875,0v5.625A.886.886,0,0,1,18.188,21.931Zm-2.812,0a.886.886,0,0,1-.937-.937V15.369a.938.938,0,0,1,1.875,0v5.625A.886.886,0,0,1,15.375,21.931Zm-2.812,0a.886.886,0,0,1-.937-.937V15.369a.938.938,0,0,1,1.875,0v5.625A.886.886,0,0,1,12.563,21.931Z" transform="translate(-6 -5.9)"/></g></svg>