<svg xmlns="http://www.w3.org/2000/svg" width="137.171" height="136.96" viewBox="0 0 137.171 136.96"><defs><style>.a{fill:#0075c9;}</style></defs><path class="a" d="M3207.88,2227.245l-8-8.76c-2.558-2.8-5.409-5.5-7.69-8.537a7.081,7.081,0,0,1-1.4-6.546,5.5,5.5,0,0,1,2.922-3.771c6.406-2.827,11.54,4.645,15.3,8.532l16.621,17.187,16.291,16.846c5.379,5.561,10.979,10.98,16.143,16.74,2.143,2.392,4.419,5.526,2.99,8.857a5.342,5.342,0,0,1-6.85,3.078,17.622,17.622,0,0,1-5.313-3.1c-2.711-2.115-5.36-4.312-7.956-6.566-5.184-4.5-10.139-9.252-15.113-13.977-3.183-3.023-11.032-8.521-6.855-13.444,8.223-9.688,18.432-17.67,27.729-26.271,2.2-2.031,4.833-4.838,7.82-5.583a4.78,4.78,0,0,1,5.964,4.811c-.214,3.34-3.245,5.906-5.468,8.077q-4.259,4.159-8.522,8.313-16.236,15.833-32.485,31.656-4.188,4.081-8.374,8.166c-2.858,2.787-5.453,5.631-9.19,7.234-5.377,2.31-10.589,1.231-15.442-1.717-9.557-5.809-15.66-15.237-18.282-26.018-2.37-9.74-.49-20.481,2.892-29.767a64.334,64.334,0,1,1,49.529,85.6,69.873,69.873,0,0,1-19.976-6.589c-2.447-1.24-4.611,2.443-2.156,3.686,24.1,12.217,53.432,10.388,74.954-6.266a68.579,68.579,0,1,0-105.5-80.07c-4.267,10.4-6.544,22.741-4.03,33.845,2.725,12.025,9.638,22.623,20.184,29.129,5.189,3.2,11.091,4.772,17.077,2.969a23.671,23.671,0,0,0,9.818-5.953q4.646-4.534,9.3-9.069,18.188-17.729,36.378-35.455c3.03-2.953,6.185-5.822,9.077-8.91,2.439-2.6,4.584-5.749,4.486-9.468-.181-7.043-8.081-10.516-13.869-7.294-3.225,1.8-5.936,4.492-8.628,6.975-2.805,2.587-5.658,5.121-8.51,7.654-5.193,4.611-10.226,9.352-15.057,14.345-1.877,1.94-4.278,4.037-5.007,6.736-.856,3.17.434,6.325,2.334,8.839,2.082,2.756,4.824,5,7.315,7.362,2.763,2.625,5.521,5.256,8.319,7.844a165.117,165.117,0,0,0,16.312,13.787c4.813,3.41,11.307,4.729,15.479-.417a10.078,10.078,0,0,0,1.929-9.219c-1.071-3.5-3.69-6.248-6.17-8.822q-9.168-9.513-18.368-18.994l-18.55-19.182-9.143-9.452c-2.724-2.817-5.329-5.933-8.363-8.426-4.286-3.522-11.641-4.48-15.721-.034a11.332,11.332,0,0,0-.744,14,97.315,97.315,0,0,0,7.75,8.8l8.8,9.636c1.857,2.034,4.869-.992,3.02-3.019Z" transform="translate(-3157.389 -2166.322)"/></svg>