<svg xmlns="http://www.w3.org/2000/svg" width="17" height="20" viewBox="0 0 17 20">
  <defs>
    <style>
      .a{fill:#0075c9;}
    </style>
  </defs>
  <g transform="translate(-5 -3)">
    <g transform="translate(5 3)">
      <path d="M19.923,23H7.077A2.068,2.068,0,0,1,5,20.923V5.077A1.979,1.979,0,0,1,7.077,3H19.846A2.229,2.229,0,0,1,22,5V20.923A2.068,2.068,0,0,1,19.923,23ZM7.077,4.538a.526.526,0,0,0-.538.538V20.923a.522.522,0,0,0,.538.538H19.923a.522.522,0,0,0,.538-.538V5.154c-.077-.308-.231-.615-.615-.615Z" class="a" transform="translate(-5 -3)"/>
    </g>
    <g transform="translate(8 7.615)">
      <path d="M19.054,16.692H9.669a.769.769,0,1,1,0-1.538h9.385a.769.769,0,0,1,0,1.538Zm0-3.077H9.669a.769.769,0,1,1,0-1.538h9.385a.769.769,0,0,1,0,1.538Zm0-3.077H9.669A.769.769,0,0,1,9.669,9h9.385a.769.769,0,0,1,0,1.538Z" class="a" transform="translate(-8.9 -9)"/>
    </g>
    <g transform="translate(8 16.846)">
      <path d="M15.823,22.538H9.669a.769.769,0,1,1,0-1.538h6.154a.769.769,0,1,1,0,1.538Z" class="a" transform="translate(-8.9 -21)"/>
    </g>
  </g>
</svg>
