<svg xmlns="http://www.w3.org/2000/svg" width="14" height="14" viewBox="0 0 14 14"><defs><style>.a{fill:#4d535c;}.b{fill:#fff;}</style></defs><g transform="translate(-1628 -74)"><g transform="translate(-2619 9084)"><path class="a" d="M7,0A7,7,0,1,1,0,7,7,7,0,0,1,7,0Z" transform="translate(4247 -9010)"/><g transform="translate(4261 -9010) rotate(90)"><path class="b" d="M7,14a7,7,0,1,1,7-7A7.021,7.021,0,0,1,7,14ZM7,.875A6.125,6.125,0,1,0,13.125,7,6.143,6.143,0,0,0,7,.875Z"/><g transform="translate(5.731 3.85)"><path class="b" d="M13.538,15.144a.4.4,0,0,1-.306-.131.423.423,0,0,1,0-.613l2.45-2.45L13.275,9.544a.433.433,0,0,1,.613-.613L16.6,11.644a.423.423,0,0,1,0,.613l-2.756,2.756A.4.4,0,0,1,13.538,15.144Z" transform="translate(-13.1 -8.8)"/></g></g></g></g></svg>