<svg xmlns="http://www.w3.org/2000/svg" width="100" height="100" viewBox="0 0 100 100"><defs><style>.a{fill:#0075c9;}</style></defs><g transform="translate(-2.489 -2.4)"><g transform="translate(2.489 2.4)"><path class="a" d="M83.309,102.4H21.341A19.16,19.16,0,0,1,8.062,96.518a18.848,18.848,0,0,1-5.533-13.6V29.238A16.24,16.24,0,0,1,8.062,16,18.974,18.974,0,0,1,21.71,10.488h4.057V6.076A3.479,3.479,0,0,1,29.456,2.4a3.479,3.479,0,0,1,3.689,3.676v4.044H48.636V6.076a3.689,3.689,0,0,1,7.377,0v4.044H71.874V6.076a3.689,3.689,0,0,1,7.377,0v4.044h4.057a18.867,18.867,0,0,1,19.181,19.118V82.915a18.848,18.848,0,0,1-5.533,13.6C92.9,100.194,88.1,102.4,83.309,102.4ZM9.537,48.356V82.915a11.346,11.346,0,0,0,11.8,11.765h61.6a12.332,12.332,0,0,0,8.484-3.309,11.626,11.626,0,0,0,3.32-8.456V48.356Zm0-7.353H94.743V29.238a11.346,11.346,0,0,0-11.8-11.765H78.882v7.721a3.689,3.689,0,0,1-7.377,0V17.474H56.013v7.721a3.689,3.689,0,0,1-7.377,0V17.474H32.775v7.721a3.479,3.479,0,0,1-3.689,3.676A3.479,3.479,0,0,1,25.4,25.194V17.474H21.341a11.864,11.864,0,0,0-8.115,3.676,11.791,11.791,0,0,0-3.689,8.088ZM75.563,86.959H29.087a3.676,3.676,0,1,1,0-7.353H75.563a3.479,3.479,0,0,1,3.689,3.676A3.69,3.69,0,0,1,75.563,86.959Zm0-15.441H29.087a3.676,3.676,0,1,1,0-7.353H75.563a3.479,3.479,0,0,1,3.689,3.676A3.69,3.69,0,0,1,75.563,71.518Z" transform="translate(-2.489 -2.4)"/></g></g></svg>