<svg xmlns="http://www.w3.org/2000/svg" width="20" height="15.36" viewBox="0 0 20 15.36"><defs><style>.a{fill:#4d535c;}</style></defs><g transform="translate(-1149 -908)"><path class="a" d="M19.128,21.36H6.84a3.6,3.6,0,0,1-2.688-1.152A3.6,3.6,0,0,1,3,17.52V9.84A3.6,3.6,0,0,1,4.152,7.152,3.6,3.6,0,0,1,6.84,6H19.128a3.6,3.6,0,0,1,2.688,1.152A3.6,3.6,0,0,1,22.969,9.84v7.68a3.6,3.6,0,0,1-1.152,2.688A3.6,3.6,0,0,1,19.128,21.36ZM6.84,7.536a2.21,2.21,0,0,0-1.613.691A2.21,2.21,0,0,0,4.536,9.84v7.68a2.092,2.092,0,0,0,.691,1.613,2.21,2.21,0,0,0,1.613.691H19.128a2.092,2.092,0,0,0,1.613-.691,2.21,2.21,0,0,0,.691-1.613V9.84a2.092,2.092,0,0,0-.691-1.613,2.21,2.21,0,0,0-1.613-.691Z" transform="translate(1146 902)"/><path class="a" d="M12.985,16.9a.692.692,0,0,1-.384-.077L3.385,11.45a.85.85,0,0,1-.307-1.075.85.85,0,0,1,1.075-.307l8.832,5.146,8.832-5.146a.791.791,0,1,1,.768,1.382l-9.216,5.376A.692.692,0,0,1,12.985,16.9Z" transform="translate(1145.999 901.082)"/></g></svg>