<svg xmlns="http://www.w3.org/2000/svg" width="30" height="30" viewBox="0 0 30 30"><defs><style>.a{fill:#fff;}</style></defs><g transform="translate(-1117 -819)"><path class="a" d="M15,30A15,15,0,1,1,30,15,15.044,15.044,0,0,1,15,30ZM15,1.875A13.125,13.125,0,1,0,28.125,15,13.164,13.164,0,0,0,15,1.875Z" transform="translate(1117 819)"/><path class="a" d="M13.925,23.612v-7.5H11.3V13.206h2.625V11.144A3.522,3.522,0,0,1,17.675,7.3c1.031,0,1.969.094,2.25.094v2.625h-1.5c-1.125,0-1.406.563-1.406,1.406V13.3h2.906l-.375,2.906H16.925v7.5h-3Z" transform="translate(1116.294 818.544)"/></g></svg>