<svg xmlns="http://www.w3.org/2000/svg" width="17.754" height="19.501" viewBox="0 0 17.754 19.501"><defs><style>.a{fill:#fff;}</style></defs><g transform="translate(-695.566 183.946)"><path class="a" d="M697.576-164.445a2.011,2.011,0,0,1-2.007-2V-181.92a1.937,1.937,0,0,1,.5-1.378,1.951,1.951,0,0,1,1.359-.645,1.738,1.738,0,0,1,.177,0h10.582a.751.751,0,0,1,.54.229l2.968,3.075a.751.751,0,0,1,.21.521v6.3a.75.75,0,0,1-.75.75.75.75,0,0,1-.75-.75v-6l-2.536-2.628H697.58a.506.506,0,0,0-.393.152.463.463,0,0,0-.119.335v15.488a.513.513,0,0,0,.508.525H709.9a.51.51,0,0,0,.368-.154.5.5,0,0,0,.143-.36v-2.261a.75.75,0,0,1,.75-.75.75.75,0,0,1,.75.75v2.25a1.987,1.987,0,0,1-.568,1.418,2,2,0,0,1-1.412.607H697.576Z"/><path class="a" d="M706.245-172.174h-.3v.752h.223c.3,0,.447-.15.447-.376,0-.15,0-.225-.074-.3C706.466-172.1,706.392-172.174,706.245-172.174Z"/><path class="a" d="M709.222-171.874c-.074-.075-.074-.15-.149-.15a.229.229,0,0,0-.149-.075H708.4v1.8h.521a.257.257,0,0,0,.149-.075l.149-.15a.278.278,0,0,0,.074-.225v-.75C709.3-171.723,709.3-171.8,709.222-171.874Z"/><path class="a" d="M712.425-173.828h-7.373a.864.864,0,0,0-.894.833c0,.022,0,.045,0,.067v3.307a.864.864,0,0,0,.827.9h7.44a.864.864,0,0,0,.894-.833c0-.022,0-.044,0-.067v-3.307A.91.91,0,0,0,712.425-173.828Zm-5.213,2.48a1.025,1.025,0,0,1-.223.3.564.564,0,0,1-.372.15c-.149,0-.3.075-.447.075h-.3v.676c0,.225-.074.3-.3.3H705.5a.27.27,0,0,1-.223-.075.279.279,0,0,1-.074-.225V-172.4a.279.279,0,0,1,.074-.225.274.274,0,0,1,.223-.075h.67a1.488,1.488,0,0,1,.819.225.733.733,0,0,1,.3.676A.5.5,0,0,1,707.212-171.348Zm2.756.752a.686.686,0,0,1-.3.451c-.149.15-.223.225-.372.225a1.092,1.092,0,0,1-.521.075h-.745a.271.271,0,0,1-.223-.075.279.279,0,0,1-.074-.225V-172.4a.279.279,0,0,1,.074-.225.274.274,0,0,1,.223-.075h.745a1.1,1.1,0,0,1,.521.075,1.62,1.62,0,0,1,.372.225,1.565,1.565,0,0,1,.3.451,1.665,1.665,0,0,1,.074.676,2.091,2.091,0,0,1-.075.677Zm2.085-1.654a.27.27,0,0,1-.223.075h-.672v.676h.521a.274.274,0,0,1,.223.075.278.278,0,0,1,.074.225.273.273,0,0,1-.245.3.253.253,0,0,1-.055,0h-.518v.752a.278.278,0,0,1-.074.225.27.27,0,0,1-.223.075h-.074a.27.27,0,0,1-.223-.075.278.278,0,0,1-.074-.225V-172.4a.278.278,0,0,1,.074-.225.274.274,0,0,1,.223-.075h1.043a.274.274,0,0,1,.223.075.278.278,0,0,1,.074.225C712.127-172.328,712.127-172.25,712.053-172.25Z"/></g></svg>