<svg xmlns="http://www.w3.org/2000/svg" width="19.496" height="19.48" viewBox="0 0 19.496 19.48"><defs><style>.a{fill:#fff;}</style></defs><g transform="translate(-115.506 -189.574)"><path class="a" d="M126.961,194.536A.75.75,0,1,0,125.9,195.6l1.913,1.91a.751.751,0,0,0,1.061-1.062Z"/><path class="a" d="M134.774,193.544a.75.75,0,0,0-1.326-.305l-2.791,2.8-2.372-2.381a.7.7,0,0,0,.092-.061l2.59-2.583a.75.75,0,0,0-.336-1.256,5.428,5.428,0,0,0-4.906,1.1.726.726,0,0,0-.1.131l-.91-.913a.752.752,0,0,0-1.017-.042,6.926,6.926,0,0,0-2,7.686l-5.187,5.208a3.626,3.626,0,0,0,5.032,5.214.7.7,0,0,0,.108-.09l5.879-5.895a6.884,6.884,0,0,0,7.247-8.61Zm-6.02-2.44-.9.9-.471-.471A3.947,3.947,0,0,1,128.754,191.1Zm4.693,4.947a5.394,5.394,0,0,1-6.09,4.574.756.756,0,0,0-.636.213l-6.06,6.077a.689.689,0,0,0-.065.056,2.127,2.127,0,0,1-3.59-1.492,2.106,2.106,0,0,1,.576-1.507l5.53-5.552a.748.748,0,0,0,.149-.845,5.422,5.422,0,0,1,.909-5.921l5.956,5.978a.77.77,0,0,0,1.062,0l2.313-2.321A5.432,5.432,0,0,1,133.447,196.051Z"/><path class="a" d="M119.221,204.274l-1,1a.75.75,0,1,0,1.06,1.06l1-1a.75.75,0,1,0-1.06-1.06Z"/></g></svg>