<svg xmlns="http://www.w3.org/2000/svg" width="20" height="20" viewBox="0 0 20 20"><defs><style>.a{fill:#fff;}</style></defs><g transform="translate(-3 -3)"><g transform="translate(13.692 3)"><path class="a" d="M25.438,12.308H17.669a.727.727,0,0,1-.769-.769V3.769A.727.727,0,0,1,17.669,3a8.569,8.569,0,0,1,8.538,8.538A.771.771,0,0,1,25.438,12.308Zm-7-1.538h6.154a6.953,6.953,0,0,0-6.154-6.154Z" transform="translate(-16.9 -3)"/></g><g transform="translate(3 6)"><path class="a" d="M11.538,23.9a8.5,8.5,0,1,1,0-17,.727.727,0,0,1,.769.769.727.727,0,0,1-.769.769,6.962,6.962,0,1,0,7,6.923.769.769,0,1,1,1.538,0A8.619,8.619,0,0,1,11.538,23.9Z" transform="translate(-3 -6.9)"/></g></g></svg>