<svg xmlns="http://www.w3.org/2000/svg" width="175" height="58" viewBox="0 0 175 58"><defs><style>.a{fill:#fff;}</style></defs><g transform="translate(-55 -40.035)"><path class="a" d="M2.7-4.453,1.93,0H.461L2.438-11.375l3.8.008a3.713,3.713,0,0,1,2.711.934,2.937,2.937,0,0,1,.82,2.48,3.541,3.541,0,0,1-1.3,2.57,4.718,4.718,0,0,1-3.059.938ZM2.914-5.68l2.531.008a3.079,3.079,0,0,0,1.961-.6,2.407,2.407,0,0,0,.9-1.672,1.886,1.886,0,0,0-.4-1.559,2.005,2.005,0,0,0-1.523-.629l-2.7-.008Zm11.949-2.93a3.047,3.047,0,0,1,1.82.578A3.285,3.285,0,0,1,17.8-6.48a4.8,4.8,0,0,1,.246,2.16l-.016.172a5.685,5.685,0,0,1-.734,2.23A4.309,4.309,0,0,1,15.785-.367a3.7,3.7,0,0,1-2.039.523A3.052,3.052,0,0,1,11.93-.422a3.21,3.21,0,0,1-1.113-1.531,4.931,4.931,0,0,1-.25-2.133,5.76,5.76,0,0,1,.711-2.359A4.409,4.409,0,0,1,12.8-8.066,3.652,3.652,0,0,1,14.863-8.609ZM11.988-4.078a4.8,4.8,0,0,0,0,1.023,2.507,2.507,0,0,0,.551,1.469,1.653,1.653,0,0,0,1.262.57,2.253,2.253,0,0,0,1.3-.348,2.919,2.919,0,0,0,1-1.121,4.721,4.721,0,0,0,.523-1.664,7.494,7.494,0,0,0,.023-1.211,2.6,2.6,0,0,0-.57-1.492,1.69,1.69,0,0,0-1.266-.578,2.3,2.3,0,0,0-1.859.859A4.245,4.245,0,0,0,12-4.258ZM24.515-7.164l-.664-.07a2.42,2.42,0,0,0-2.141,1.227L20.672,0H19.257l1.469-8.453,1.367-.008-.211.984A2.527,2.527,0,0,1,24-8.625a2.594,2.594,0,0,1,.672.117ZM28.871-10.5l-.359,2.047H30.05l-.2,1.117H28.324l-.883,5.258a1.833,1.833,0,0,0-.008.375.6.6,0,0,0,.664.609,4.05,4.05,0,0,0,.688-.078L28.675.008a3.847,3.847,0,0,1-1.031.141,1.476,1.476,0,0,1-1.266-.621A2.4,2.4,0,0,1,26.05-2.1l.859-5.234H25.417l.2-1.117H27.1l.359-2.047ZM35.617,0a1.894,1.894,0,0,1-.055-.445l.023-.445A3.465,3.465,0,0,1,33.117.156,2.526,2.526,0,0,1,31.3-.551a2.14,2.14,0,0,1-.637-1.73,2.6,2.6,0,0,1,1.176-2.1,5.005,5.005,0,0,1,2.887-.754l1.477.008L36.3-5.8A1.545,1.545,0,0,0,36-7a1.414,1.414,0,0,0-1.113-.457A2.181,2.181,0,0,0,33.6-7.1a1.513,1.513,0,0,0-.684.98L31.5-6.109a2.266,2.266,0,0,1,.578-1.316,3.363,3.363,0,0,1,1.3-.891,4.215,4.215,0,0,1,1.648-.3,2.8,2.8,0,0,1,2.055.8A2.484,2.484,0,0,1,37.7-5.773l-.687,4.188-.039.6a2.949,2.949,0,0,0,.094.852L37.054,0ZM33.4-1.094a2.466,2.466,0,0,0,1.285-.324,3.254,3.254,0,0,0,1.043-.941l.3-1.742-1.07-.008a4.054,4.054,0,0,0-2.047.422,1.554,1.554,0,0,0-.8,1.2,1.21,1.21,0,0,0,.277.988A1.321,1.321,0,0,0,33.4-1.094ZM40.659,0H39.253l2.078-12h1.414ZM47.62-4.242a6.578,6.578,0,0,1,.711-2.328A4.03,4.03,0,0,1,49.7-8.125a3.127,3.127,0,0,1,1.789-.492,2.64,2.64,0,0,1,2.172,1.031L54.472-12h1.414L53.807,0H52.518l.148-.906A3.116,3.116,0,0,1,50.2.156a2.335,2.335,0,0,1-1.867-.918,4,4,0,0,1-.75-2.379A7.6,7.6,0,0,1,47.62-4.242Zm1.359.813a2.936,2.936,0,0,0,.4,1.734,1.437,1.437,0,0,0,1.234.633A2.554,2.554,0,0,0,52.792-2.3L53.464-6.2a1.754,1.754,0,0,0-1.7-1.187,2.142,2.142,0,0,0-1.473.5,3.26,3.26,0,0,0-.969,1.477A6.1,6.1,0,0,0,48.979-3.43ZM59.858.156a3.048,3.048,0,0,1-2.469-1.164,4.006,4.006,0,0,1-.75-2.9l.039-.336a5.624,5.624,0,0,1,.746-2.3,4.339,4.339,0,0,1,1.5-1.566,3.491,3.491,0,0,1,1.906-.5,2.688,2.688,0,0,1,2.047.867,3.566,3.566,0,0,1,.813,2.266,6.621,6.621,0,0,1-.031,1.016l-.086.648H58.046a2.856,2.856,0,0,0,.379,1.953,1.8,1.8,0,0,0,1.551.836,3.007,3.007,0,0,0,2.313-1.125l.813.688a3.718,3.718,0,0,1-1.371,1.2A3.886,3.886,0,0,1,59.858.156Zm.9-7.586a2.066,2.066,0,0,0-1.527.594A4.22,4.22,0,0,0,58.194-5l4.109.008.031-.125a2.313,2.313,0,0,0-.316-1.637A1.488,1.488,0,0,0,60.757-7.43Zm16.875,3.8a4.535,4.535,0,0,1-1.6,2.8,4.476,4.476,0,0,1-3.043.984,3.544,3.544,0,0,1-1.844-.52,3.283,3.283,0,0,1-1.227-1.43,5.34,5.34,0,0,1-.484-2.066,6.623,6.623,0,0,1,.055-1.25l.133-.937a7.076,7.076,0,0,1,1.8-4.043,4.544,4.544,0,0,1,3.488-1.441A3.4,3.4,0,0,1,77.452-10.5a4.117,4.117,0,0,1,.992,2.785H76.983q-.1-2.391-1.875-2.578L74.85-10.3a3.019,3.019,0,0,0-2.465,1.1A5.942,5.942,0,0,0,71.108-6.1l-.172,1.18-.047.688A3.867,3.867,0,0,0,71.4-1.949a1.929,1.929,0,0,0,1.66.879,2.924,2.924,0,0,0,1.965-.57A3.8,3.8,0,0,0,76.209-3.6ZM80.612,0H79.205l2.078-12H82.7Zm4,0H83.209l1.469-8.453h1.406Zm1.164-11.539a.774.774,0,0,1,.6.215.8.8,0,0,1,.238.605.849.849,0,0,1-.238.6.855.855,0,0,1-.6.25.779.779,0,0,1-.6-.211.764.764,0,0,1-.227-.594.886.886,0,0,1,.234-.609A.826.826,0,0,1,85.779-11.539ZM90.744.156a3.048,3.048,0,0,1-2.469-1.164,4.006,4.006,0,0,1-.75-2.9l.039-.336a5.624,5.624,0,0,1,.746-2.3,4.339,4.339,0,0,1,1.5-1.566,3.491,3.491,0,0,1,1.906-.5,2.688,2.688,0,0,1,2.047.867,3.566,3.566,0,0,1,.813,2.266,6.62,6.62,0,0,1-.031,1.016l-.086.648H88.932a2.856,2.856,0,0,0,.379,1.953,1.8,1.8,0,0,0,1.551.836,3.007,3.007,0,0,0,2.313-1.125l.813.688a3.718,3.718,0,0,1-1.371,1.2A3.886,3.886,0,0,1,90.744.156Zm.9-7.586a2.066,2.066,0,0,0-1.527.594A4.22,4.22,0,0,0,89.08-5l4.109.008.031-.125A2.313,2.313,0,0,0,92.9-6.754,1.488,1.488,0,0,0,91.643-7.43Zm6.707-1.031-.2,1.07a3.333,3.333,0,0,1,2.594-1.219,2.1,2.1,0,0,1,1.766.828,3.217,3.217,0,0,1,.422,2.242L102.006,0h-1.414l.93-5.562a2.968,2.968,0,0,0,.008-.711,1.168,1.168,0,0,0-1.289-1.117,2.661,2.661,0,0,0-2.234,1.359L96.959,0H95.545l1.469-8.453Zm9.73-2.039-.359,2.047h1.539l-.2,1.117h-1.531l-.883,5.258a1.833,1.833,0,0,0-.008.375.6.6,0,0,0,.664.609,4.05,4.05,0,0,0,.688-.078l-.109,1.18a3.847,3.847,0,0,1-1.031.141,1.476,1.476,0,0,1-1.266-.621,2.4,2.4,0,0,1-.328-1.629l.859-5.234h-1.492l.2-1.117h1.492l.359-2.047ZM113.31.156a3.048,3.048,0,0,1-2.469-1.164,4.006,4.006,0,0,1-.75-2.9l.039-.336a5.624,5.624,0,0,1,.746-2.3,4.339,4.339,0,0,1,1.5-1.566,3.491,3.491,0,0,1,1.906-.5,2.688,2.688,0,0,1,2.047.867,3.566,3.566,0,0,1,.813,2.266,6.62,6.62,0,0,1-.031,1.016l-.086.648H111.5a2.856,2.856,0,0,0,.379,1.953,1.8,1.8,0,0,0,1.551.836,3.007,3.007,0,0,0,2.313-1.125l.813.688a3.718,3.718,0,0,1-1.371,1.2A3.886,3.886,0,0,1,113.31.156Zm.9-7.586a2.066,2.066,0,0,0-1.527.594A4.22,4.22,0,0,0,111.646-5l4.109.008.031-.125a2.313,2.313,0,0,0-.316-1.637A1.488,1.488,0,0,0,114.208-7.43Z" transform="translate(55 97.877)"/><path class="a" d="M25.049-5.023h6.71l3.959-18.914h-14.1l-1.545,7.364H24.9a5.261,5.261,0,0,1-2.486,2.96,8.392,8.392,0,0,1-3.838.842q-3.234,0-4.634-1.853a7.9,7.9,0,0,1-1.4-4.885,19.156,19.156,0,0,1,.507-4.38,13.532,13.532,0,0,1,1.545-3.9,8.6,8.6,0,0,1,2.631-2.791,6.644,6.644,0,0,1,3.766-1.059,5.562,5.562,0,0,1,3.331.939,4.437,4.437,0,0,1,1.545,3.345H35.911a14.1,14.1,0,0,0-1.183-5.8,10.958,10.958,0,0,0-3.09-3.995,12.91,12.91,0,0,0-4.538-2.31,19.655,19.655,0,0,0-5.479-.746,19.481,19.481,0,0,0-8.786,1.853A18.057,18.057,0,0,0,6.7-33.491a20.388,20.388,0,0,0-3.6,6.882,26.968,26.968,0,0,0-1.183,7.917,20.333,20.333,0,0,0,.193,2.551,15.77,15.77,0,0,0,.748,3.1,16.519,16.519,0,0,0,1.521,3.2A10.818,10.818,0,0,0,6.922-7a12.683,12.683,0,0,0,3.79,2.021,15.928,15.928,0,0,0,5.214.77,13.7,13.7,0,0,0,5.19-.987A9.6,9.6,0,0,0,25.242-8.44l.1.1Zm20.517-7.171a2.311,2.311,0,0,1,.941-2.045,4.315,4.315,0,0,1,2.148-.746q1.3-.1,2.607-.313a8.673,8.673,0,0,0,2.462-.794,10.6,10.6,0,0,1-1.569,4.428,4.016,4.016,0,0,1-3.548,1.636,4.965,4.965,0,0,1-2.1-.433A1.714,1.714,0,0,1,45.566-12.194Zm2.752-10.251a3.112,3.112,0,0,1,1.376-1.973A4.766,4.766,0,0,1,52.132-25a4.849,4.849,0,0,1,2.052.433,1.714,1.714,0,0,1,.941,1.733A2.083,2.083,0,0,1,54.4-21.1a4.13,4.13,0,0,1-1.762.794,13.759,13.759,0,0,1-2.269.265q-1.231.048-2.245.1a35.107,35.107,0,0,0-4.924.674,11.684,11.684,0,0,0-3.814,1.492A7.143,7.143,0,0,0,36.9-15.13a8.461,8.461,0,0,0-.893,4.091,6.645,6.645,0,0,0,.652,3.056,5.58,5.58,0,0,0,1.786,2.07,7.69,7.69,0,0,0,2.607,1.155,12.83,12.83,0,0,0,3.066.361,12.292,12.292,0,0,0,2.148-.193,12.234,12.234,0,0,0,2.124-.578,10.754,10.754,0,0,0,1.931-.939A6.059,6.059,0,0,0,51.842-7.43h.1A5.2,5.2,0,0,0,51.987-6.2a7.421,7.421,0,0,0,.29,1.179h9.366a5.683,5.683,0,0,1-.386-2.214,10.075,10.075,0,0,1,.217-1.516q.217-1.131.555-2.671t.748-3.321q.41-1.781.748-3.513t.555-3.249a18.2,18.2,0,0,0,.217-2.479,5,5,0,0,0-1.255-3.586,7.946,7.946,0,0,0-3.114-2,15.83,15.83,0,0,0-3.983-.866q-2.124-.193-3.814-.193a27.419,27.419,0,0,0-4.393.337A11.557,11.557,0,0,0,44-29.039a9.067,9.067,0,0,0-2.872,2.5,10.66,10.66,0,0,0-1.786,4.091Zm16.7,9.241a7.743,7.743,0,0,0,1.014,4.548,7.953,7.953,0,0,0,2.848,2.671A11.311,11.311,0,0,0,72.77-4.71a28.972,28.972,0,0,0,4.176.313,19.583,19.583,0,0,0,5.238-.65,12.8,12.8,0,0,0,4.007-1.829,8.062,8.062,0,0,0,2.559-2.912,8.383,8.383,0,0,0,.893-3.9,7.432,7.432,0,0,0-.652-3.3,5.491,5.491,0,0,0-1.979-2.19,11,11,0,0,0-3.331-1.372,46.6,46.6,0,0,0-4.659-.89,3.549,3.549,0,0,1-1.569-.481,1.526,1.526,0,0,1-.6-1.4,1.621,1.621,0,0,1,.869-1.564,3.885,3.885,0,0,1,1.834-.457,5.684,5.684,0,0,1,1.159.12,2.5,2.5,0,0,1,1.062.505,1.974,1.974,0,0,1,.676,1.973h8.545a6.528,6.528,0,0,0-.8-4.067,6.617,6.617,0,0,0-2.655-2.406A11.849,11.849,0,0,0,83.8-30.339a29.419,29.419,0,0,0-4.055-.289,24.73,24.73,0,0,0-4.49.409,12.077,12.077,0,0,0-4.007,1.468,8.308,8.308,0,0,0-2.872,2.816,8.337,8.337,0,0,0-1.086,4.452,5.754,5.754,0,0,0,.821,3.249,6.112,6.112,0,0,0,1.955,1.9,8.013,8.013,0,0,0,2.269.939q1.134.265,1.762.361,1.352.241,2.438.409a11.722,11.722,0,0,1,1.883.433,3.521,3.521,0,0,1,1.231.65,1.342,1.342,0,0,1,.434,1.059,2.414,2.414,0,0,1-.1.6,1.984,1.984,0,0,1-.386.722,2.333,2.333,0,0,1-.869.626,3.765,3.765,0,0,1-1.545.265,4.128,4.128,0,0,1-2.51-.626,2.926,2.926,0,0,1-.869-2.31Zm53.972-7.316a10.2,10.2,0,0,0-.845-4.524,8.33,8.33,0,0,0-2.486-3.152,10.8,10.8,0,0,0-3.814-1.829,18.416,18.416,0,0,0-4.828-.6,17.417,17.417,0,0,0-6.4,1.107,13.216,13.216,0,0,0-4.755,3.1A13.466,13.466,0,0,0,92.925-21.7a16.746,16.746,0,0,0-1.014,5.9,15.5,15.5,0,0,0,.507,3.754A9.431,9.431,0,0,0,94.3-8.344a10.472,10.472,0,0,0,3.862,2.816A15.815,15.815,0,0,0,104.656-4.4,14.1,14.1,0,0,0,113.491-7q3.379-2.6,4.634-7.989h-9.172a11.052,11.052,0,0,1-.507,1.155,5.19,5.19,0,0,1-.821,1.179,4.677,4.677,0,0,1-1.207.939,3.406,3.406,0,0,1-1.666.385,3.238,3.238,0,0,1-1.666-.385,2.779,2.779,0,0,1-1.014-1.011,4.051,4.051,0,0,1-.483-1.468,12.03,12.03,0,0,1-.121-1.709,13.06,13.06,0,0,1,.241-2.214,9.672,9.672,0,0,1,.845-2.575,6.757,6.757,0,0,1,1.617-2.118,3.736,3.736,0,0,1,2.559-.89,3.235,3.235,0,0,1,2.414.722,3.168,3.168,0,0,1,.676,2.455Zm8.835,8.326a2.31,2.31,0,0,1,.941-2.045,4.315,4.315,0,0,1,2.148-.746q1.3-.1,2.607-.313a8.673,8.673,0,0,0,2.462-.794,10.6,10.6,0,0,1-1.569,4.428,4.016,4.016,0,0,1-3.548,1.636,4.965,4.965,0,0,1-2.1-.433A1.714,1.714,0,0,1,127.828-12.194Zm2.752-10.251a3.112,3.112,0,0,1,1.376-1.973A4.766,4.766,0,0,1,134.394-25a4.849,4.849,0,0,1,2.052.433,1.714,1.714,0,0,1,.941,1.733,2.082,2.082,0,0,1-.724,1.733,4.13,4.13,0,0,1-1.762.794,13.759,13.759,0,0,1-2.269.265q-1.231.048-2.245.1a35.107,35.107,0,0,0-4.924.674,11.684,11.684,0,0,0-3.814,1.492,7.143,7.143,0,0,0-2.486,2.647,8.461,8.461,0,0,0-.893,4.091,6.645,6.645,0,0,0,.652,3.056,5.58,5.58,0,0,0,1.786,2.07,7.691,7.691,0,0,0,2.607,1.155,12.83,12.83,0,0,0,3.066.361,12.292,12.292,0,0,0,2.148-.193,12.234,12.234,0,0,0,2.124-.578,10.754,10.754,0,0,0,1.931-.939A6.059,6.059,0,0,0,134.1-7.43h.1a5.2,5.2,0,0,0,.048,1.227,7.421,7.421,0,0,0,.29,1.179H143.9a5.683,5.683,0,0,1-.386-2.214,10.076,10.076,0,0,1,.217-1.516q.217-1.131.555-2.671t.748-3.321q.41-1.781.748-3.513t.555-3.249a18.193,18.193,0,0,0,.217-2.479,5,5,0,0,0-1.255-3.586,7.946,7.946,0,0,0-3.114-2,15.83,15.83,0,0,0-3.983-.866q-2.124-.193-3.814-.193a27.419,27.419,0,0,0-4.393.337,11.557,11.557,0,0,0-3.741,1.251,9.067,9.067,0,0,0-2.872,2.5,10.66,10.66,0,0,0-1.786,4.091ZM147.187-5.023h9.559l2.8-13.235a10.949,10.949,0,0,1,.531-1.829,5.577,5.577,0,0,1,.869-1.516,3.919,3.919,0,0,1,1.3-1.035,4.31,4.31,0,0,1,1.931-.385,3.048,3.048,0,0,1,1.931.6,2.146,2.146,0,0,1,.772,1.8,8.583,8.583,0,0,1-.266,1.9q-.266,1.131-.507,2.238L163.649-5.023h9.559l3.041-14.1q.29-1.4.483-2.671a14.541,14.541,0,0,0,.193-2.094,6.913,6.913,0,0,0-.652-3.128,5.533,5.533,0,0,0-1.786-2.094,7.69,7.69,0,0,0-2.607-1.155,13.039,13.039,0,0,0-3.114-.361,9.25,9.25,0,0,0-4.345,1.059,11.052,11.052,0,0,0-3.428,2.743h-.1L161.622-30H152.4Z" transform="translate(53.075 80.24)"/></g></svg>