<svg xmlns="http://www.w3.org/2000/svg" width="1933.372" height="275.704" viewBox="0 0 1933.372 275.704"><defs><style>.a{fill:none;stroke:#fff;stroke-miterlimit:10;stroke-width:2px;}</style></defs><path class="a" d="M1919.343,222.953c-194.352-3.384-349.059-89.763-544.539-104.75-163.894-12.57-203.537,104.75-346.964,104.75A100.07,100.07,0,0,1,927.763,122.877C927.763,67.6,966.279,22.8,1027.839,22.8c101.2,0,112.324,108.134,78.482,128.762-28.524,17.566-58.5,6.93-89.763-29.008-31.1-35.937,1.934-56.887,24.173-54.792,22.4,2.095,34.165,18.855,33.036,35.937-.967,14.02-9.186,36.26-41.739,36.582-26.429.322-25.3,60.272-42.061,51.73-7.252-3.707-.806-15.31,14.5-42.545s36.743-9.83,52.214-26.752c5.8-6.285,22.078-44.8-6.607-56.565-28.685-11.925-51.086,5.963-56.243,29.813-4.351,20.628,17.566,40.772,29.008,45.284,11.442,4.351,5.963,15.632-8.7,7.413-8.058-4.512-174.8-193.868-322.256-26.107-74.006,84.1-142.349,159.692-239.213,171.895S181.651,262.525-13.943,248.908" transform="translate(14.012 -21.8)"/></svg>