<svg xmlns="http://www.w3.org/2000/svg" xmlns:xlink="http://www.w3.org/1999/xlink" width="1920" height="833.994" viewBox="0 0 1920 833.994"><defs><style>.a{fill:#004891;opacity:0.115;}.b{fill:#1595e9;opacity:0.096;}.c{clip-path:url(#a);}.d,.e{opacity:0.3;}.d{fill:url(#b);}.e{fill:url(#c);}</style><clipPath id="a"><rect class="a" width="1920" height="833.994"/></clipPath><linearGradient id="b" y1="0.409" x2="1" y2="0.417" gradientUnits="objectBoundingBox"><stop offset="0" stop-color="#fff" stop-opacity="0.502"/><stop offset="1" stop-color="#0075c9" stop-opacity="0.302"/></linearGradient><linearGradient id="c" y1="0.133" x2="1" y2="0.5" gradientUnits="objectBoundingBox"><stop offset="0" stop-color="#fff" stop-opacity="0"/><stop offset="0.441" stop-color="#0075c9" stop-opacity="0.302"/><stop offset="1" stop-color="#fff" stop-opacity="0.502"/></linearGradient></defs><g transform="translate(0 -4586)"><rect class="b" width="1920" height="801.994" transform="translate(0 4586)"/><g class="c" transform="translate(0 4586)"><g transform="translate(-144.88 -34.379)"><path class="d" d="M1.073,580.941V158.04H0V-212H2064.877V107.2h0s0,.1,0,.3V158.04h-.245c-.162,41.119-.261,92.453.247,93.993-562.208,3.619-779.566,41.787-1241.907,279.6-188.346,88.421-354.707,115.388-487.665,115.38C127.253,647,1.073,580.941,1.073,580.941Z" transform="translate(2184.88 667.018) rotate(180)"/><path class="e" d="M823.822,736.036C508.741,611.057,383.139,564.389,0,562.495c.328-.768.284-33.25.185-61.283H0V-28H1407.2V501.212h-.733V839.1s-11.488.73-32.735.73C1295.146,839.828,1082.966,829.847,823.822,736.036Z" transform="translate(1554.817 860.36) rotate(180)"/></g></g></g></svg>