<svg xmlns="http://www.w3.org/2000/svg" width="100.469" height="119.366" viewBox="0 0 100.469 119.366"><defs><style>.a{fill:#002855;}</style></defs><g transform="translate(-1081 -318)"><path class="a" d="M1180.59,338.16l-19.284-19.281a3,3,0,0,0-2.121-.879h-67.392A10.855,10.855,0,0,0,1081,328.9v97.563a10.867,10.867,0,0,0,10.813,10.9h78.843l.1,0a10.852,10.852,0,0,0,10.711-10.9V340.281A3,3,0,0,0,1180.59,338.16Zm-7.878.608h-12.017V326.753Zm1.357,91.154a4.807,4.807,0,0,1-3.4,1.443h-78.837a4.863,4.863,0,0,1-4.828-4.9V328.883a4.855,4.855,0,0,1,4.813-4.883h62.882v17.768a3,3,0,0,0,3,3h17.774v81.716A4.819,4.819,0,0,1,1174.069,429.922Z"/><path class="a" d="M1119.113,369.684l9.038-8.977v27.93a3,3,0,0,0,6,0V360.709l9.034,8.974a3,3,0,1,0,4.228-4.256l-14.144-14.052-.034-.033h0a2.973,2.973,0,0,0-.908-.6,3.1,3.1,0,0,0-2.35,0,2.963,2.963,0,0,0-.912.607h0l0,0h0l-.023.021-14.15,14.053a3,3,0,1,0,4.228,4.258Z" transform="translate(2262.298 742.146) rotate(180)"/><path class="a" d="M1153.9,385.227a3,3,0,0,0-3,3v10.445H1112.5V388.227a3,3,0,1,0-6,0v13.445a3,3,0,0,0,3,3H1153.9a3,3,0,0,0,3-3V388.227A3,3,0,0,0,1153.9,385.227Z"/></g></svg>